<svg width="43" height="35" viewBox="0 0 43 35" fill="none" xmlns="http://www.w3.org/2000/svg">
<path d="M7 33.5C35 35 10.5 19.5 36.5 19.5" stroke="white" stroke-linecap="round" stroke-dasharray="2 2"/>
<path d="M41.8707 4.32219C44.4287 9.18998 36.5445 19 36.5445 19C36.5445 19 28.2587 9.24037 30.8432 4.32219C33.1709 -0.107398 39.5429 -0.107398 41.8707 4.32219Z" stroke="white" stroke-linecap="round"/>
<circle cx="2.7" cy="2.7" r="2.2" transform="matrix(-1 0 0 1 38.9512 4.6001)" stroke="white"/>
<path d="M12.5269 18.3222C15.085 23.19 7.20072 33 7.20072 33C7.20072 33 -1.0851 23.2404 1.49941 18.3222C3.82717 13.8926 10.1992 13.8926 12.5269 18.3222Z" stroke="white" stroke-linecap="round"/>
<circle cx="2.7" cy="2.7" r="2.2" transform="matrix(-1 0 0 1 9.60742 18.6001)" stroke="white"/>
</svg>
