<svg width="30" height="45" viewBox="0 0 30 45" fill="none" xmlns="http://www.w3.org/2000/svg">
<line x1="12.5" y1="17" x2="12.5" y2="22" stroke="white"/>
<line x1="15.5" y1="17" x2="15.5" y2="22" stroke="white"/>
<circle cx="14" cy="9" r="8.5" stroke="white"/>
<mask id="path-4-inside-1_68_29" fill="white">
<path d="M28 33C28 31.4241 27.6379 29.8637 26.9343 28.4078C26.2307 26.9519 25.1995 25.629 23.8995 24.5147C22.5995 23.4004 21.0561 22.5165 19.3576 21.9134C17.659 21.3104 15.8385 21 14 21C12.1615 21 10.341 21.3104 8.64243 21.9134C6.94387 22.5165 5.40052 23.4004 4.1005 24.5147C2.80048 25.629 1.76925 26.9519 1.06569 28.4078C0.36212 29.8637 -1.60727e-07 31.4241 0 33L14 33H28Z"/>
</mask>
<path d="M28 33C28 31.4241 27.6379 29.8637 26.9343 28.4078C26.2307 26.9519 25.1995 25.629 23.8995 24.5147C22.5995 23.4004 21.0561 22.5165 19.3576 21.9134C17.659 21.3104 15.8385 21 14 21C12.1615 21 10.341 21.3104 8.64243 21.9134C6.94387 22.5165 5.40052 23.4004 4.1005 24.5147C2.80048 25.629 1.76925 26.9519 1.06569 28.4078C0.36212 29.8637 -1.60727e-07 31.4241 0 33L14 33H28Z" stroke="white" stroke-width="2" mask="url(#path-4-inside-1_68_29)"/>
<path d="M6 6.5H29" stroke="white" stroke-linecap="round"/>
</svg>
