<svg width="86" height="85" viewBox="0 0 86 85" fill="none" xmlns="http://www.w3.org/2000/svg">
<path d="M0 84H85.5" stroke="white" stroke-width="2"/>
<path d="M42.4931 51.9469C42.0556 54.3441 41.5438 56.6615 41.1002 58.5318C40.7454 56.669 40.3431 54.3685 40.0139 51.9893C39.6245 49.1744 39.342 46.2808 39.3544 43.8817C39.3606 42.681 39.4407 41.6358 39.6062 40.8011C39.7767 39.9416 40.0151 39.4251 40.2466 39.1654C40.6441 38.7194 41.0959 38.5421 41.5001 38.5421C41.9042 38.5421 42.3561 38.7194 42.7536 39.1654C42.9755 39.4143 43.2016 39.9176 43.3458 40.7728C43.4857 41.6026 43.5294 42.6442 43.4901 43.8438C43.4114 46.2402 43.0067 49.1321 42.4931 51.9469Z" stroke="white" stroke-width="2"/>
<path d="M27.4997 1.5C19.4997 20.0025 20.0642 39.8933 27.4997 54C32.1999 62.9173 40.9997 76 40.9997 76C40.9997 76 49.1249 62.8603 53.4997 54C60.5388 39.7437 61.4997 20.0025 53.4997 1.5" stroke="white" stroke-width="2" stroke-linecap="round"/>
</svg>
