<?xml version="1.0" encoding="UTF-8"?> <svg xmlns="http://www.w3.org/2000/svg" width="510" height="56" viewBox="0 0 510 56" fill="none"> <g clip-path="url(#clip0_0_3)"> <path d="M52.99 10.51C54.11 4.33 52.35 0 44.97 0H22.11L19.94 10.83H39.43C40.63 10.83 40.95 11.47 40.79 12.84L38.3 25.76H26.2L27.99 16.8L0 30.23H20.83L19.04 39.19L37.41 30.37L34.94 43.15C34.62 44.43 33.98 45.08 32.53 45.08H13.28L11.2 55.99H34.14C41.44 55.99 44.97 51.66 46.09 45.48L52.99 10.51ZM90.81 55.99L101.72 0H76.13C68.67 0 64.98 4.33 63.86 10.51L51.03 55.99H63.62L75.33 12.84C75.49 11.48 76.29 10.84 77.41 10.84H87.68L78.69 56H90.8L90.81 55.99ZM131.4 30L128.91 43.64C128.59 45.08 127.71 45.81 126.51 45.81H116.4L119.85 28H130.12C131.24 28 131.72 28.56 131.4 30.01M143.59 28.57C144.79 22.23 142.87 17.82 135.41 17.82H121.69L125.22 0H113.27L102.36 55.99H128.03C135.57 55.99 139.02 51.66 140.22 45.48L143.59 28.56V28.57ZM183.21 10.84L176.47 45.09H163.71L172.45 12.84C172.61 11.48 173.41 10.83 174.54 10.83H183.2L183.21 10.84ZM188.46 45.09L197.25 0H173.27C165.81 0 162.12 4.33 161 10.51L151.24 45.08H146.24L143.99 55.99H189.95L192.12 45.08H188.47L188.46 45.09ZM230.22 12.83L224.36 43.15C223.96 44.59 223.16 45.08 222.04 45.08H213.54C212.42 45.08 212.02 44.6 212.18 43.15L218.2 12.83C218.36 11.47 219 10.82 220.37 10.82H228.87C229.91 10.82 230.55 11.46 230.23 12.83M242.42 10.51C243.61 4.33 241.76 0 234.23 0H218.99C211.53 0 207.92 4.33 206.56 10.51L199.9 45.48C198.78 51.66 200.62 55.99 207.92 55.99H223.32C230.86 55.99 234.39 51.66 235.51 45.48L242.41 10.51H242.42ZM276.59 12.83L273.7 26.79C273.38 28.31 272.66 28.79 271.45 28.79H261.18L264.87 10.82H275.06C276.26 10.82 276.74 11.46 276.58 12.83M288.69 10.51C289.97 4.33 288.05 0 280.59 0H255.08L244.25 55.99H255.88L259.17 39.79H273.13C280.51 39.79 283.64 35.3 285 29.12L288.69 10.51ZM313.24 14.68L311.46 36.5H303.03L312.44 14.68H313.24ZM323.27 55.99L324.7 0H308.5L281.71 55.99H294.62L299.08 45.64H310.7L309.86 55.99H323.26H323.27ZM367.63 10.83L360.89 45.08H348.13L356.87 12.83C357.03 11.47 357.83 10.82 358.96 10.82H367.62L367.63 10.83ZM372.88 45.08L381.65 0H357.67C350.21 0 346.52 4.33 345.4 10.51L335.64 45.08H330.64L328.39 55.99H374.35L376.52 45.08H372.87H372.88ZM415.83 12.83L409.9 43.15C409.74 44.59 408.94 45.08 407.73 45.08H399.15C397.95 45.08 397.63 44.6 397.79 43.15L403.56 12.83C403.96 11.47 404.6 10.82 405.73 10.82H414.39C415.51 10.82 416.07 11.46 415.83 12.83ZM419.84 0H404.44C397.14 0 393.61 4.33 392.33 10.51L385.59 45.48C384.39 51.66 386.23 55.99 393.61 55.99H409.09C416.55 55.99 420 51.66 421.2 45.48L428.1 10.51C429.22 4.33 427.38 0 419.84 0Z" fill="#C61A3C"></path> <path d="M428.04 43.11L425.52 55.99H437.29L439.83 43.11H428.04Z" fill="#C61A3C"></path> <path d="M509.5 16.8H500.92L495.1 46.73C494.95 47.51 494.67 47.79 494.05 47.79H487.88C487.32 47.79 487.15 47.51 487.3 46.73L493.12 16.8H484.54L478.47 48.04C477.56 52.74 478.83 55.99 484.48 55.99H494.33C499.98 55.99 502.52 52.74 503.43 48.04L509.5 16.8Z" fill="#C61A3C"></path> <path d="M466.99 25.78L464.98 35.55C464.76 36.62 464.26 36.95 463.42 36.95H456.28L458.85 24.37H465.94C466.78 24.37 467.11 24.82 467 25.77M469.79 16.79H452.05L444.52 55.98H452.61L454.9 44.64H458.9L460.65 55.98H469.61L467.2 44.31C470.51 43.41 472.09 40.67 472.86 37.17L475.43 24.14C476.32 19.82 474.98 16.78 469.79 16.78" fill="#C61A3C"></path> </g> <defs> <clipPath id="clip0_0_3"> <rect width="509.5" height="55.99" fill="white"></rect> </clipPath> </defs> </svg> 