<?xml version="1.0" encoding="UTF-8"?> <svg xmlns="http://www.w3.org/2000/svg" width="389" height="112" viewBox="0 0 389 112" fill="none"> <g clip-path="url(#clip0_2_422)"> <path d="M55.4234 0.00148631L29.7342 25.6907L55.4234 51.3799L81.1126 25.6907L55.4234 0.00148631Z" fill="#00A19A"></path> <path d="M25.6905 29.7331L0.00128174 55.4223L25.6905 81.1115L51.3797 55.4223L25.6905 29.7331Z" fill="#00A19A"></path> <path d="M55.7152 59.7531L30.026 85.4423L55.7152 111.131L81.4044 85.4423L55.7152 59.7531Z" fill="#00A19A"></path> <path d="M97.5417 22.1707L64.0602 55.6522L97.5417 89.1337L131.023 55.6522L97.5417 22.1707Z" fill="#F9B233"></path> <path d="M178 69.93C177.45 71.38 176.2 72.97 173.29 72.97C170.38 72.97 169.14 71.38 168.58 69.93L159.17 46.12C159.1 45.91 158.89 45.36 158.62 45.36C158.2 45.36 158.2 45.78 158.2 45.98L158.55 72.56H150.45V40.72C150.45 37.12 153.43 35.46 156.75 35.46C159.8 35.46 161.8 36.43 162.98 39.41L172.26 62.74C172.4 63.09 172.95 64.19 173.3 64.19C173.65 64.19 174.2 63.08 174.34 62.74L183.62 39.41C184.8 36.43 186.8 35.46 189.85 35.46C193.18 35.46 196.15 37.12 196.15 40.72V72.56H188.05L188.4 45.98C188.4 45.57 188.12 45.29 187.98 45.29C187.77 45.29 187.5 45.84 187.36 46.12L178.02 69.93H178Z" fill="#00A19A"></path> <path d="M214.55 72.56C210.81 72.56 206.38 72.21 203.33 67.92C200.91 64.46 200.7 59.4 200.7 54.56C200.7 47.7 201.05 42.65 205.06 39.19C209.07 35.73 215.3 35.73 218.77 35.73C223.06 35.73 227.49 35.94 230.89 38.08C235.18 40.78 236.08 45.35 236.08 49.99C236.08 51.86 235.87 54 234.35 55.53C233.24 56.64 231.86 56.91 230.4 56.91H209.08C209.08 58.5 209.29 60.86 209.56 61.96C210.6 65.91 213.99 66.32 216.97 66.32H234.9V72.55H214.55V72.56ZM225.9 50.68C227.49 50.68 227.7 49.5 227.7 48.53C227.7 46.25 226.52 44.52 225.35 43.62C223.34 42.1 220.71 41.96 218.43 41.96C216.28 41.96 212.96 41.89 210.74 44.38C209.08 46.25 209.15 48.25 209.08 50.68H225.9Z" fill="#00A19A"></path> <path d="M251.93 39.06C252.76 37.05 254.14 35.46 257.88 35.46C261.62 35.46 263 37.26 263.76 39.06L275.25 66.33H278.5V72.56H237.17V66.33H240.49L251.91 39.06H251.93ZM248.4 66.33H267.37L258.58 43.56C258.44 43.21 258.3 42.59 257.89 42.59C257.61 42.59 257.27 43.14 257.13 43.56L248.41 66.33H248.4Z" fill="#00A19A"></path> <path d="M293.46 72.56C289.72 72.56 285.29 72.21 282.25 67.92C279.83 64.46 279.62 59.4 279.62 54.56C279.62 47.7 279.97 42.65 283.98 39.19C288 35.73 294.23 35.73 297.69 35.73C301.98 35.73 306.41 35.94 309.8 38.08C314.09 40.78 315 45.35 315 49.99C315 51.86 314.79 54 313.27 55.53C312.16 56.64 310.78 56.91 309.32 56.91H288C288 58.5 288.21 60.86 288.48 61.96C289.52 65.91 292.91 66.32 295.89 66.32H313.82V72.55H293.47L293.46 72.56ZM304.81 50.68C306.4 50.68 306.61 49.5 306.61 48.53C306.61 46.25 305.43 44.52 304.26 43.62C302.25 42.1 299.62 41.96 297.34 41.96C295.19 41.96 291.87 41.89 289.65 44.38C287.99 46.25 288.06 48.25 287.99 50.68H304.81Z" fill="#F9B233"></path> <path d="M319.56 35.87H327.66V72.56H319.56V35.87ZM344.69 72.56L331.33 57.95C330.5 57.05 329.25 55.53 329.25 53.66C329.25 51.79 330.77 50.06 331.81 48.88L343.51 35.86H353.13L339.22 50.68C338.6 51.3 337.49 52.48 337.49 53.66C337.49 54.42 338.25 55.67 338.81 56.22L354.45 72.56H344.69Z" fill="#F9B233"></path> <path d="M377.7 35.87C380.82 35.87 383.66 36.98 385.32 38.71C386.84 40.3 388.02 43.28 388.02 47.36V66.4C388.02 67.72 387.88 69.79 386.57 71.11C385.25 72.43 383.25 72.56 381.52 72.56H364.01C362 72.56 359.44 72.56 357.36 70.76C354.39 68.2 354.18 63.49 354.18 60.79C354.18 57.54 354.53 54.28 357.29 51.86C359.58 49.85 362.07 49.72 364 49.72H379.92V47.16C379.92 46.05 379.78 44.81 378.88 43.7C377.77 42.31 376.18 42.11 374.93 42.11H356.86V35.88H377.69L377.7 35.87ZM366.42 55.95C365.87 55.95 364.34 56.02 363.44 57.2C363.17 57.55 362.54 58.51 362.54 61.14C362.54 62.25 362.68 64.19 363.65 65.23C364.2 65.79 365.24 66.34 366.28 66.34H377.56C378.05 66.34 378.81 66.34 379.36 65.93C379.92 65.45 379.92 64.96 379.92 64.41V55.96H366.42V55.95Z" fill="#F9B233"></path> </g> <defs> <clipPath id="clip0_2_422"> <rect width="388.02" height="111.13" fill="white"></rect> </clipPath> </defs> </svg> 