<?xml version="1.0" encoding="UTF-8"?> <svg xmlns="http://www.w3.org/2000/svg" width="200" height="238" viewBox="0 0 200 238" fill="none"> <g clip-path="url(#clip0_1_152)"> <mask id="mask0_1_152" style="mask-type:luminance" maskUnits="userSpaceOnUse" x="46" y="0" width="128" height="51"> <path d="M46.75 18.47C75.33 4.61 95.14 14.17 107.44 26.27C109.08 27.87 110.58 29.51 111.94 31.14C119.76 40.5 123.41 49.7 123.41 49.7C128.39 50.62 133.05 50.88 137.4 50.67C137.68 50.66 137.94 50.66 138.23 50.64C138.48 50.62 138.72 50.58 138.98 50.57C148.6 49.7 161.08 46.02 172.5 34.57C172.89 34.18 173.28 33.76 173.67 33.35C171.9 31.25 170.09 29.15 168.11 27.17C149.94 9.05 126.17 0 102.41 0C82.82 0 63.22 6.16 46.75 18.47Z" fill="white"></path> </mask> <g mask="url(#mask0_1_152)"> <path d="M173.67 0H46.75V50.88H173.67V0Z" fill="url(#paint0_linear_1_152)"></path> </g> <mask id="mask1_1_152" style="mask-type:luminance" maskUnits="userSpaceOnUse" x="8" y="59" width="58" height="119"> <path d="M12.04 67.75C-1.43051e-05 113 23.38 159.27 65.18 177.19C38.89 159.36 37.28 137.43 41.59 120.74C42.16 118.52 42.83 116.41 43.57 114.4C47.77 102.96 53.91 95.2 53.91 95.2C52.23 90.42 50.11 86.25 47.75 82.61C47.6 82.37 47.47 82.15 47.31 81.91C47.16 81.69 47.01 81.5 46.87 81.29C41.31 73.4 31.87 64.43 16.26 60.26C15.72 60.12 15.17 59.99 14.61 59.85C13.66 62.44 12.78 65.05 12.05 67.76L12.04 67.75Z" fill="white"></path> </mask> <g mask="url(#mask1_1_152)"> <path d="M65.18 59.83H0V177.18H65.18V59.83Z" fill="url(#paint1_linear_1_152)"></path> </g> <mask id="mask2_1_152" style="mask-type:luminance" maskUnits="userSpaceOnUse" x="114" y="81" width="81" height="104"> <path d="M156.54 130.63C154.34 131.24 152.17 131.72 150.08 132.09C138.06 134.18 128.27 132.74 128.27 132.74C124.97 136.59 122.43 140.5 120.44 144.37C120.32 144.61 120.19 144.85 120.06 145.1C119.94 145.33 119.85 145.55 119.74 145.79C115.67 154.55 112.63 167.21 116.84 182.81C116.98 183.34 117.15 183.89 117.31 184.44C120.02 183.96 122.74 183.42 125.44 182.7C170.64 170.51 199.02 127.13 193.64 81.96C191.34 113.64 173.18 126.02 156.54 130.62V130.63Z" fill="white"></path> </mask> <g mask="url(#mask2_1_152)"> <path d="M199.02 81.97H112.63V184.45H199.02V81.97Z" fill="url(#paint2_linear_1_152)"></path> </g> <mask id="mask3_1_152" style="mask-type:luminance" maskUnits="userSpaceOnUse" x="16" y="10" width="92" height="84"> <path d="M46.75 18.47C46.75 18.47 26.57 31.1 16.03 56.47C18.8 56.95 46.94 62.63 57.42 93.91C59.98 92.27 67.86 86.05 73.15 68.91C79.55 48.2 91.7 32.91 107.44 26.26C107.44 26.26 96.7 10.96 74.89 10.96C66.98 10.96 57.6 12.97 46.75 18.47Z" fill="white"></path> </mask> <g mask="url(#mask3_1_152)"> <path d="M107.44 10.97H16.03V93.92H107.44V10.97Z" fill="url(#paint3_linear_1_152)"></path> </g> <mask id="mask4_1_152" style="mask-type:luminance" maskUnits="userSpaceOnUse" x="38" y="120" width="88" height="66"> <path d="M65.18 177.18C65.18 177.18 86.19 188.32 113.4 184.8C112.92 183.45 110.7 176.83 110.7 167.62C110.7 157.11 113.61 143.21 125.27 130.12L125.4 129.92C123.5 127.89 116.83 122.87 99.69 126.78C78.56 131.6 55.23 131.04 41.6 120.73C41.6 120.73 26.96 152.21 65.19 177.18H65.18Z" fill="white"></path> </mask> <g mask="url(#mask4_1_152)"> <path d="M125.4 120.73H26.95V188.33H125.4V120.73Z" fill="url(#paint4_linear_1_152)"></path> </g> <mask id="mask5_1_152" style="mask-type:luminance" maskUnits="userSpaceOnUse" x="122" y="36" width="72" height="95"> <path d="M134.96 55.01C131.12 55.01 127.04 54.62 122.74 53.73L122.54 53.69C121.76 56.57 121.11 64.74 132.75 77.29C147.49 93.19 158.66 113.67 156.55 130.63C156.55 130.63 191.15 127.57 193.65 81.97C193.65 81.97 192.8 58.18 176.12 36.38C173.11 40.03 158.82 55 134.97 55.02L134.96 55.01Z" fill="white"></path> </mask> <g mask="url(#mask5_1_152)"> <path d="M193.64 36.38H121.1V130.64H193.64V36.38Z" fill="url(#paint5_linear_1_152)"></path> </g> <path d="M25.7399 236.85H20.6899V213.32H28.7999C34.7199 213.32 38.4499 215.77 38.4499 221.18C38.4499 226.59 34.6199 229.49 28.3299 229.49H25.7399V236.85ZM25.6399 225.05H28.3999C31.4299 225.05 33.2399 223.87 33.2399 221.39C33.2399 218.77 31.5199 217.76 28.4399 217.76H25.6499V225.05H25.6399Z" fill="#3B3B3A"></path> <path d="M42.12 225.08C42.12 217.18 46.93 212.91 53.42 212.91C60.68 212.91 64.88 217.52 64.88 225.08C64.88 233.45 60.01 237.25 53.55 237.25C46.72 237.25 42.12 232.98 42.12 225.08ZM59.54 225.08C59.54 219.74 57.09 217.35 53.42 217.35C50.09 217.35 47.46 219.83 47.46 225.08C47.46 230.33 50.19 232.81 53.72 232.81C57.25 232.81 59.54 230.36 59.54 225.08Z" fill="#3B3B3A"></path> <path d="M87.32 235.9C86.11 236.54 84.4 237.25 80.97 237.25C73.77 237.25 69.03 233.11 69.03 225.38C69.03 217.65 73.77 212.9 81.47 212.9C84.02 212.9 86.14 213.44 87.39 214.01L86.28 218.24C84.87 217.77 83.26 217.54 82.18 217.54C77.53 217.54 74.37 219.86 74.37 225.07C74.37 230.28 77.4 232.57 82.14 232.57C83.22 232.57 84.87 232.27 86.31 231.66L87.32 235.9Z" fill="#3B3B3A"></path> <path d="M105.79 230.56H95.74L93.45 236.84H90.39L99.36 213.31H102.39L111.2 236.84H108.05L105.79 230.56ZM96.71 227.8H104.82L100.88 216.74H100.74L96.71 227.8Z" fill="#3B3B3A"></path> <path d="M121.7 236.85H118.68V216.14H111.72V213.31H128.66V216.14H121.7V236.85Z" fill="#3B3B3A"></path> <path d="M131.86 225.08C131.86 217.55 136.19 212.98 142.42 212.98C149.41 212.98 153.18 217.95 153.18 225.08C153.18 233.08 148.68 237.18 142.52 237.18C136 237.18 131.86 232.55 131.86 225.08ZM149.95 225.08C149.95 218.62 147.06 215.8 142.42 215.8C138.29 215.8 135.09 218.79 135.09 225.08C135.09 231.37 138.18 234.36 142.82 234.36C147.46 234.36 149.95 231.16 149.95 225.08Z" fill="#3B3B3A"></path> <path d="M182.41 236.85H179.38L177.94 218.45L171.99 236.85H168.83L162.91 218.53L161.43 236.85H158.41L160.42 213.31H164.12L170.47 233.55L176.69 213.31H180.39L182.41 236.85Z" fill="#3B3B3A"></path> </g> <defs> <linearGradient id="paint0_linear_1_152" x1="100.2" y1="0.299998" x2="122.66" y2="56.72" gradientUnits="userSpaceOnUse"> <stop stop-color="#4895D1"></stop> <stop offset="1" stop-color="#1C2266"></stop> </linearGradient> <linearGradient id="paint1_linear_1_152" x1="51.22" y1="153.54" x2="12.7" y2="81.11" gradientUnits="userSpaceOnUse"> <stop stop-color="#4895D1"></stop> <stop offset="1" stop-color="#1C2266"></stop> </linearGradient> <linearGradient id="paint2_linear_1_152" x1="187.01" y1="117.25" x2="114.4" y2="154.42" gradientUnits="userSpaceOnUse"> <stop stop-color="#4895D1"></stop> <stop offset="1" stop-color="#1C2266"></stop> </linearGradient> <linearGradient id="paint3_linear_1_152" x1="50.46" y1="73.45" x2="82.17" y2="14.36" gradientUnits="userSpaceOnUse"> <stop stop-color="#4895D1"></stop> <stop offset="1" stop-color="#1C2266"></stop> </linearGradient> <linearGradient id="paint4_linear_1_152" x1="113.74" y1="147.08" x2="56.7499" y2="158.39" gradientUnits="userSpaceOnUse"> <stop stop-color="#4895D1"></stop> <stop offset="1" stop-color="#1C2266"></stop> </linearGradient> <linearGradient id="paint5_linear_1_152" x1="148.02" y1="55.97" x2="170.04" y2="120.82" gradientUnits="userSpaceOnUse"> <stop stop-color="#4895D1"></stop> <stop offset="1" stop-color="#1C2266"></stop> </linearGradient> <clipPath id="clip0_1_152"> <rect width="199.02" height="237.25" fill="white"></rect> </clipPath> </defs> </svg> 