<?xml version="1.0" encoding="UTF-8"?> <svg xmlns="http://www.w3.org/2000/svg" width="486" height="147" viewBox="0 0 486 147" fill="none"> <g clip-path="url(#clip0_1_2)"> <path d="M208.29 16.93H204.78V146.19H208.29V16.93Z" fill="#01518D"></path> <path d="M271.41 26.84C271.41 33.35 268.04 36.89 262.08 36.89H257.82V48.33H254.14V16.92H262.08C268.05 16.92 271.41 20.51 271.41 26.84ZM267.68 26.84C267.68 22.58 265.84 20.42 262.07 20.42H257.81V33.39H262.07C265.84 33.39 267.68 31.33 267.68 26.84Z" fill="#01518D"></path> <path d="M273.93 40.13V32.91C273.93 27.26 277.11 24.16 282.05 24.16C286.99 24.16 290.13 27.26 290.13 32.91V40.13C290.13 45.78 286.99 48.88 282.05 48.88C277.11 48.88 273.93 45.78 273.93 40.13ZM286.58 40.13V32.91C286.58 29.23 284.88 27.61 282.05 27.61C279.22 27.61 277.52 29.23 277.52 32.91V40.13C277.52 43.81 279.22 45.47 282.05 45.47C284.88 45.47 286.58 43.81 286.58 40.13Z" fill="#01518D"></path> <path d="M294.59 40.26V32.68C294.59 27.25 297.64 24.15 302.4 24.15C307.16 24.15 310.21 27.25 310.39 32.68H306.8C306.71 29.22 305.14 27.56 302.4 27.56C299.66 27.56 298.18 29.22 298.18 32.68V40.26C298.18 43.76 299.75 45.38 302.4 45.38C305.18 45.38 306.75 43.76 306.89 40.26H310.43C310.29 45.73 307.24 48.83 302.4 48.83C297.56 48.83 294.59 45.73 294.59 40.26Z" fill="#01518D"></path> <path d="M314.12 40.26V32.68C314.12 27.25 317.17 24.15 321.93 24.15C326.69 24.15 329.74 27.25 329.92 32.68H326.33C326.24 29.22 324.67 27.56 321.93 27.56C319.19 27.56 317.71 29.22 317.71 32.68V40.26C317.71 43.76 319.28 45.38 321.93 45.38C324.71 45.38 326.28 43.76 326.42 40.26H329.96C329.82 45.73 326.77 48.83 321.93 48.83C317.09 48.83 314.12 45.73 314.12 40.26Z" fill="#01518D"></path> <path d="M334.24 24.73H337.7V36.4C337.7 38.2 337.7 40.17 337.61 42.33L337.7 42.42C338.1 41.34 339.14 38.74 339.76 37.3L345.77 24.73H349.36V48.34H345.95V37.48C345.95 35.15 345.99 32.68 346.13 30.52L346.04 30.47C345.73 31.5 344.6 34.46 343.75 36.26L337.83 48.33H334.24V24.73Z" fill="#01518D"></path> <path d="M354.94 24.73H358.4V36.4C358.4 38.2 358.4 40.17 358.31 42.33L358.4 42.42C358.8 41.34 359.84 38.74 360.46 37.3L366.47 24.73H370.06V48.34H366.65V37.48C366.65 35.15 366.69 32.68 366.83 30.52L366.74 30.47C366.43 31.5 365.3 34.46 364.45 36.26L358.53 48.33H354.94V24.73ZM357.32 15.76H360.01C360.15 17.51 360.95 18.41 362.52 18.41C364.09 18.41 364.94 17.51 365.03 15.76H367.77C367.63 19.13 365.66 21.06 362.56 21.06C359.46 21.06 357.44 19.13 357.31 15.76H357.32Z" fill="#01518D"></path> <path d="M375.06 40.26V32.68C375.06 27.25 378.11 24.15 382.87 24.15C387.63 24.15 390.68 27.25 390.86 32.68H387.27C387.18 29.22 385.61 27.56 382.87 27.56C380.13 27.56 378.65 29.22 378.65 32.68V40.26C378.65 43.76 380.22 45.38 382.87 45.38C385.65 45.38 387.22 43.76 387.36 40.26H390.9C390.76 45.73 387.71 48.83 382.87 48.83C378.03 48.83 375.06 45.73 375.06 40.26Z" fill="#01518D"></path> <path d="M400.38 37.66L398.68 39.59V48.34H395.18V24.73H398.68V35.14C399.76 33.66 400.79 32.18 401.82 30.79L406.35 24.73H410.7L402.67 34.87L411.83 48.33H407.66L400.39 37.65L400.38 37.66Z" fill="#01518D"></path> <path d="M414.57 24.73H418.03V36.4C418.03 38.2 418.03 40.17 417.94 42.33L418.03 42.42C418.43 41.34 419.47 38.74 420.09 37.3L426.1 24.73H429.69V48.34H426.28V37.48C426.28 35.15 426.32 32.68 426.46 30.52L426.37 30.47C426.06 31.5 424.93 34.46 424.08 36.26L418.16 48.33H414.57V24.73Z" fill="#01518D"></path> <path d="M450.93 41.02C450.57 46 447.56 48.83 442.54 48.83C437.52 48.83 434.69 45.69 434.69 40.17V32.76C434.69 27.28 437.79 24.14 442.59 24.14C447.39 24.14 450.62 27.28 450.62 32.76V38.01H438.28V40.16C438.28 43.75 439.9 45.37 442.63 45.37C445.64 45.37 447.03 44.02 447.43 41.02H450.93ZM438.28 32.72V35.1H447.12V32.72C447.12 29.18 445.46 27.51 442.63 27.51C439.8 27.51 438.28 29.17 438.28 32.72Z" fill="#01518D"></path> <path d="M254.12 84.18V70.9C254.12 64.71 257.62 61.25 262.87 61.25C268.12 61.25 271.58 64.57 271.89 70.63H268.26C267.99 66.59 266.11 64.7 262.83 64.7C259.82 64.7 257.81 66.68 257.81 70.89V84.17C257.81 88.34 259.92 90.32 262.97 90.32C266.29 90.32 268.13 88.39 268.49 84.44H272.13C271.77 90.41 268.45 93.77 262.97 93.77C257.49 93.77 254.13 90.36 254.13 84.16L254.12 84.18Z" fill="#01518D"></path> <path d="M288.74 72.91H283.13V93.24H279.63V72.91H274.02V69.63H288.74V72.91Z" fill="#01518D"></path> <path d="M307.28 69.64L299.56 95.58C298.48 99.31 296.96 101.77 293.55 101.77H291.62V98.36H292.97C294.9 98.36 295.53 96.92 296.11 94.99L297.37 90.82L289.79 69.64H293.52L298.91 85.66L303.67 69.64H307.31H307.28Z" fill="#01518D"></path> <path d="M306.93 89.97H308.68C309.98 87.82 310.61 84.4 310.88 80.55C311.15 76.87 311.28 73.28 311.33 69.64H324.34V89.97H326.99V98.45H323.58V93.24H310.34V98.45H306.93V89.97ZM320.84 89.97V72.92H314.69C314.65 75.7 314.56 78.44 314.33 81.22C314.02 84.99 313.48 87.86 312.62 89.97H320.83H320.84Z" fill="#01518D"></path> <path d="M346.07 85.93C345.71 90.91 342.7 93.74 337.68 93.74C332.66 93.74 329.83 90.6 329.83 85.08V77.67C329.83 72.19 332.93 69.05 337.73 69.05C342.53 69.05 345.76 72.19 345.76 77.67V82.92H333.42V85.07C333.42 88.66 335.04 90.28 337.77 90.28C340.78 90.28 342.17 88.93 342.57 85.93H346.07ZM333.42 77.63V80.01H342.26V77.63C342.26 74.09 340.6 72.42 337.77 72.42C334.94 72.42 333.42 74.08 333.42 77.63Z" fill="#01518D"></path> <path d="M365.52 69.64V93.25H361.98V82.75H354.22V93.25H350.72V69.64H354.22V79.42H361.98V69.64H365.52Z" fill="#01518D"></path> <path d="M384.78 69.64V93.25H381.37V84.68C379.98 85.4 378.5 85.58 377.02 85.58C372.94 85.58 369.7 82.62 369.7 76.2V69.65H373.11V76.2C373.11 80.6 374.91 82.21 377.33 82.21C378.63 82.21 380.07 82.12 381.37 81.31V69.64H384.78Z" fill="#01518D"></path> <path d="M406.02 85.93C405.66 90.91 402.65 93.74 397.63 93.74C392.61 93.74 389.78 90.6 389.78 85.08V77.67C389.78 72.19 392.88 69.05 397.68 69.05C402.48 69.05 405.71 72.19 405.71 77.67V82.92H393.37V85.07C393.37 88.66 394.99 90.28 397.72 90.28C400.73 90.28 402.12 88.93 402.52 85.93H406.02ZM393.37 77.63V80.01H402.21V77.63C402.21 74.09 400.55 72.42 397.72 72.42C394.89 72.42 393.37 74.08 393.37 77.63Z" fill="#01518D"></path> <path d="M410.07 85.17V77.59C410.07 72.16 413.12 69.06 417.88 69.06C422.64 69.06 425.69 72.16 425.87 77.59H422.28C422.19 74.13 420.62 72.47 417.88 72.47C415.14 72.47 413.66 74.13 413.66 77.59V85.17C413.66 88.67 415.23 90.29 417.88 90.29C420.66 90.29 422.23 88.67 422.37 85.17H425.91C425.77 90.64 422.72 93.74 417.88 93.74C413.04 93.74 410.07 90.64 410.07 85.17Z" fill="#01518D"></path> <path d="M435.39 82.56L433.69 84.49V93.24H430.19V69.63H433.69V80.04C434.77 78.56 435.8 77.08 436.83 75.69L441.36 69.63H445.71L437.68 79.77L446.84 93.23H442.67L435.4 82.55L435.39 82.56Z" fill="#01518D"></path> <path d="M449.58 69.64H453.04V81.31C453.04 83.11 453.04 85.08 452.95 87.24L453.04 87.33C453.44 86.25 454.48 83.65 455.1 82.21L461.11 69.64H464.7V93.25H461.29V82.39C461.29 80.06 461.33 77.59 461.47 75.43L461.38 75.38C461.07 76.41 459.94 79.37 459.09 81.17L453.17 93.24H449.58V69.63V69.64Z" fill="#01518D"></path> <path d="M485.94 85.93C485.58 90.91 482.57 93.74 477.55 93.74C472.53 93.74 469.7 90.6 469.7 85.08V77.67C469.7 72.19 472.8 69.05 477.6 69.05C482.4 69.05 485.63 72.19 485.63 77.67V82.92H473.29V85.07C473.29 88.66 474.91 90.28 477.64 90.28C480.65 90.28 482.04 88.93 482.44 85.93H485.94ZM473.29 77.63V80.01H482.13V77.63C482.13 74.09 480.47 72.42 477.64 72.42C474.81 72.42 473.29 74.08 473.29 77.63Z" fill="#01518D"></path> <path d="M254.12 128.27V116.56C254.12 110.14 257.62 106.15 263.45 106.15C269.28 106.15 272.74 110.14 272.74 116.56V128.27C272.74 134.73 269.28 138.73 263.45 138.73C257.62 138.73 254.12 134.74 254.12 128.27ZM268.98 128.27V116.56C268.98 112.21 267.09 109.74 263.46 109.74C259.83 109.74 257.9 112.21 257.9 116.56V128.27C257.9 132.67 259.78 135.14 263.46 135.14C267.14 135.14 268.98 132.67 268.98 128.27Z" fill="#01518D"></path> <path d="M290.4 117.82H284.79V138.15H281.29V117.82H275.68V114.54H290.4V117.82Z" fill="#01518D"></path> <path d="M309.57 123.11V129.71C309.57 135.5 306.7 138.69 302.12 138.69C300.23 138.69 298.39 137.88 297.14 136.45V146.23H293.68V114.5H296.33L296.69 116.7C297.86 115.13 299.92 114.01 302.12 114.01C306.52 114.01 309.57 117.24 309.57 123.12V123.11ZM305.98 123.11C305.98 119.02 304.32 117.27 301.49 117.27C299.02 117.27 297.14 119.16 297.14 123.01V129.7C297.14 133.11 298.8 135.35 301.49 135.35C304.45 135.35 305.98 133.65 305.98 129.7V123.1V123.11Z" fill="#01518D"></path> <path d="M327.62 114.54V138.15H324.21V129.85H321.11L316.31 138.15H312.23L317.61 129.49C314.92 128.68 313.03 126.03 313.03 122.13C313.03 117.51 316.13 114.55 320.75 114.55H327.62V114.54ZM324.21 117.82H320.84C318.1 117.82 316.53 119.44 316.53 122.22C316.53 125 317.92 126.75 320.66 126.75H324.21V117.82Z" fill="#01518D"></path> <path d="M330.19 134.87H331.94C333.24 132.72 333.87 129.3 334.14 125.45C334.41 121.77 334.55 118.18 334.59 114.54H347.6V134.87H350.25V143.35H346.84V138.14H333.6V143.35H330.19V134.87ZM344.1 134.87V117.82H337.95C337.91 120.6 337.82 123.34 337.59 126.12C337.28 129.89 336.74 132.76 335.88 134.87H344.09H344.1Z" fill="#01518D"></path> <path d="M368.97 130.52C368.97 135.01 365.56 138.15 361.2 138.15H353.66V114.68H357.16V122.98H361.2C365.55 122.98 368.97 126.03 368.97 130.52ZM365.38 130.48C365.38 127.88 363.54 126.26 360.98 126.26H357.16V134.88H360.98C363.54 134.88 365.38 133.18 365.38 130.48ZM375.7 114.68V138.15H372.2V114.68H375.7Z" fill="#01518D"></path> <path fill-rule="evenodd" clip-rule="evenodd" d="M86.72 130.6C86.58 130.62 86.43 130.64 86.28 130.66L86.72 130.6Z" fill="#01518D"></path> <path d="M73.9098 4.11115L70.9652 4.49882L74.398 30.5738L77.3426 30.1862L73.9098 4.11115Z" fill="#01518D"></path> <path d="M57.9468 7.98179L55.2029 9.11836L65.2675 33.4164L68.0114 32.2798L57.9468 7.98179Z" fill="#01518D"></path> <path d="M127.707 104.193L129.442 101.932L109.425 86.5733L107.69 88.8343L127.707 104.193Z" fill="#01518D"></path> <path d="M135.901 90.7273L136.991 88.0942L113.682 78.4391L112.591 81.0722L135.901 90.7273Z" fill="#01518D"></path> <path d="M140.473 75.0493L140.781 72.216L115.698 69.4911L115.391 72.3245L140.473 75.0493Z" fill="#01518D"></path> <path d="M64.3238 0.00117604L61.455 0.769867L69.7424 31.6988L72.6112 30.9301L64.3238 0.00117604Z" fill="#01518D"></path> <path d="M143.9 84.7459L144.638 81.9931L114.975 74.0447L114.237 76.7976L143.9 84.7459Z" fill="#01518D"></path> <path d="M126.163 94.2231L127.588 91.7549L111.818 82.6499L110.393 85.1181L126.163 94.2231Z" fill="#01518D"></path> <path d="M133.884 66.9673L133.807 64.1183L115.603 64.6109L115.68 67.4598L133.884 66.9673Z" fill="#01518D"></path> <path d="M73.2 101.09L74.62 101.61L74.65 101.35C74.16 101.27 73.67 101.19 73.19 101.09H73.2Z" fill="#01518D"></path> <path d="M68.56 99.4L68.41 99.76C68.98 99.96 69.55 100.15 70.13 100.32L70.22 100L68.57 99.39L68.56 99.4Z" fill="#01518D"></path> <path d="M72.9 100.98V101.02C72.99 101.04 73.1 101.07 73.2 101.09L73.05 101.03L72.9 100.97V100.98Z" fill="#01518D"></path> <path d="M65.54 98.29L64.19 97.8L64.13 97.9C64.67 98.18 65.21 98.44 65.76 98.69L65.87 98.42L65.53 98.3L65.54 98.29Z" fill="#01518D"></path> <path d="M68.14 99.24L68.35 99.32L68.56 99.4L68.59 99.31L65.96 98.21L65.88 98.42L66 98.46L68.14 99.24Z" fill="#01518D"></path> <path d="M68.35 99.32L68.14 99.24L66 98.46L65.88 98.42L65.77 98.69C66.63 99.08 67.51 99.44 68.41 99.76L68.56 99.4L68.35 99.32Z" fill="#01518D"></path> <path d="M70.86 100.24L70.52 100.12L70.22 100.01L70.13 100.33C71.04 100.6 71.96 100.84 72.89 101.04V101L70.86 100.25V100.24Z" fill="#01518D"></path> <path d="M63.39 97.51C63.64 97.64 63.89 97.77 64.14 97.9L64.2 97.8L63.4 97.51H63.39Z" fill="#01518D"></path> <path d="M43.5324 15.8544L41.1761 17.6624L57.1865 38.5276L59.5428 36.7196L43.5324 15.8544Z" fill="#01518D"></path> <path d="M31.65 27.19L29.84 29.55L37.9 35.74C39.23 35.38 40.55 35.14 41.84 35.02L31.65 27.2V27.19Z" fill="#01518D"></path> <path d="M29.99 44.07L23.11 41.22L21.97 43.97L30.04 47.31C29.85 46.19 29.84 45.1 29.99 44.07Z" fill="#01518D"></path> <path d="M33.18 17.09L31.08 19.19L46.98 35.09C48.9 35.33 50.77 35.81 52.57 36.48L33.18 17.09Z" fill="#01518D"></path> <path d="M34.09 37.47L14.18 25.97L12.69 28.55L31.85 39.61C32.47 38.8 33.22 38.08 34.08 37.47H34.09Z" fill="#01518D"></path> <path d="M31.95 52.07L14.76 47.46L13.99 50.33L35.4 56.07C33.95 54.76 32.81 53.41 31.96 52.07H31.95Z" fill="#01518D"></path> <path d="M54.1434 17.7926L51.5714 19.2776L61.0614 35.7148L63.6334 34.2298L54.1434 17.7926Z" fill="#01518D"></path> <path d="M54.46 93.22L54.17 93.47L54.94 94.12L56.11 92.94L54.46 93.22Z" fill="#01518D"></path> <path d="M30.29 47.41L30.04 47.31C30.31 48.86 30.93 50.47 31.95 52.08L32.27 52.17C31.22 50.57 30.58 48.97 30.28 47.42L30.29 47.41Z" fill="#01518D"></path> <path d="M42.64 34.96C42.94 34.94 43.23 34.93 43.53 34.92C43.23 34.92 42.94 34.94 42.64 34.96Z" fill="#01518D"></path> <path d="M56.51 92.55L56.12 92.94L56.84 92.82C56.45 92.49 56.89 92.9 56.51 92.55Z" fill="#01518D"></path> <path d="M37.65 35.84C37.75 35.81 37.84 35.79 37.94 35.76L37.9 35.73C37.76 35.77 37.61 35.8 37.47 35.84C36.22 36.2 35.08 36.76 34.08 37.46L34.17 37.51C35.18 36.78 36.35 36.21 37.64 35.83L37.65 35.84Z" fill="#01518D"></path> <path d="M42.5 34.97C42.28 34.98 42.07 34.99 41.85 35.01L41.87 35.03C42.08 35.01 42.29 34.98 42.5 34.97Z" fill="#01518D"></path> <path d="M31.99 39.69L31.85 39.61C30.87 40.9 30.22 42.42 29.98 44.07L30.18 44.15C30.4 42.5 31.03 40.98 31.99 39.69Z" fill="#01518D"></path> <path d="M41.87 35.03L41.85 35.01C40.56 35.13 39.24 35.38 37.91 35.73L37.95 35.76C39.28 35.39 40.59 35.15 41.88 35.02L41.87 35.03Z" fill="#01518D"></path> <path d="M30.18 44.15L29.98 44.07C29.83 45.1 29.84 46.19 30.03 47.31L30.28 47.41C30.07 46.28 30.04 45.19 30.18 44.15Z" fill="#01518D"></path> <path d="M34.18 37.52L34.09 37.47C33.23 38.08 32.48 38.8 31.86 39.61L32 39.69C32.61 38.87 33.34 38.14 34.19 37.52H34.18Z" fill="#01518D"></path> <path d="M32.27 52.16L31.95 52.07C32.81 53.42 33.94 54.76 35.39 56.07L35.86 56.2C34.35 54.88 33.16 53.52 32.27 52.16Z" fill="#01518D"></path> <path d="M46.98 35.09C46.21 34.99 45.43 34.94 44.65 34.92C45.44 34.94 46.23 35.01 47 35.12L46.98 35.1V35.09Z" fill="#01518D"></path> <path d="M52.64 36.55L52.57 36.48C50.77 35.81 48.9 35.34 46.98 35.09L47 35.11C48.94 35.37 50.82 35.86 52.64 36.54V36.55Z" fill="#01518D"></path> <path d="M124.56 107.07L92.43 81.36L81.78 83.19C82.83 79.16 84.03 75.16 84.93 71.1C85.31 69.39 84.88 67.98 84.14 66.44C82.5 63.02 79.68 61.23 76.4 59.45C70.89 56.45 67.38 65.87 71.67 68.77C76.69 72.17 74.51 76.05 72.85 80.62C72.46 81.85 71.19 86.63 70.14 86.93C63.32 88.88 59.22 89.84 52.34 91.55L49.67 99.39L109.93 116.44C114.13 117.38 120.84 117.96 125.14 116.44C133.15 113.62 126.64 108.72 124.55 107.06L124.56 107.07ZM102.38 111.4L54.96 94.06L71.47 89.16C71.63 89.11 71.64 88.87 71.72 88.72C73.28 85.9 75.5 81.41 76.6 78.47C77.95 74.85 78.74 73.31 76.6 69.54C75.99 68.46 73.75 65.36 72.45 64.55C72.89 61.93 75.43 62.59 77.14 63.51C79.33 65.09 81.47 67.56 81.68 70.31C81.93 73.76 80.35 82.71 78.47 86.04C77.32 88.08 77.19 88.44 75.01 88.22C74.77 88.2 74.09 88.22 74.09 88.46C74.09 88.77 74.35 88.94 74.6 89.13C77.11 91.11 85.29 92.35 82.27 86.92C82.19 86.77 81.81 86.54 81.98 86.48C85.04 85.5 88.17 84.72 91.29 83.91L122.86 108.7C123.48 109.17 125.98 110.75 125.81 112.18C124.94 119.12 104.38 112.04 102.39 111.39L102.38 111.4Z" fill="#01518D"></path> <path d="M64.59 65.63C64.23 63.71 64.13 62.22 64.31 60.93C66.17 56.66 68.56 53.32 74.13 55.6C77.13 56.83 77.39 58.17 77.67 58.48L79.99 59.95L78.91 57.15C78.05 55.54 75.58 53.03 73.73 52.49C73.62 52.46 73.44 52.43 73.23 52.41L70.5 50.04C65.56 44.43 59.51 39.05 52.56 36.48L52.63 36.55C50.81 35.86 48.93 35.37 46.99 35.12C46.21 35.02 45.43 34.95 44.64 34.92C44.57 34.92 44.5 34.92 44.43 34.92C44.13 34.92 43.83 34.92 43.52 34.92C43.22 34.92 42.93 34.94 42.63 34.96C42.58 34.96 42.54 34.96 42.49 34.96C42.28 34.98 42.07 35 41.86 35.02C40.57 35.15 39.26 35.39 37.93 35.76C37.83 35.79 37.74 35.81 37.64 35.84C36.35 36.21 35.18 36.78 34.17 37.52C33.32 38.14 32.59 38.87 31.98 39.69C31.02 40.98 30.39 42.5 30.17 44.15C30.03 45.19 30.06 46.29 30.27 47.41C30.56 48.96 31.21 50.56 32.26 52.16C33.15 53.52 34.34 54.88 35.85 56.2C38.25 58.3 41.47 60.3 45.66 62.05C46.3 62.32 46.96 62.58 47.64 62.84C58.67 66.96 60.12 67.28 71 70.57C68.34 66.89 68.34 66.67 64.57 65.63H64.59ZM64.03 56.38L64 56.44L63.97 56.49L63.93 56.57V56.59L63.87 56.69L63.82 56.8C63.79 56.88 63.76 56.95 63.73 57.02C63.6 57.34 63.48 57.67 63.38 58V58.02L62.73 55.46C61.39 53.89 56.21 49.61 51.66 46.98C48.48 45.15 45.59 44.13 44.54 45.42C43.23 49.57 37.71 46.37 38.04 43.14C38.13 42.28 38.64 41.42 39.75 40.69C40.01 40.52 40.29 40.35 40.62 40.2C41.34 39.86 42.08 39.62 42.83 39.47C44.58 39.12 46.41 39.27 48.29 39.92C50.26 40.6 52.31 41.82 54.42 43.55C57.18 45.82 60.66 48.6 63.64 52.6C65.44 51.13 66.79 50.76 69.09 52.54C66.95 52.77 65.05 54.56 64.1 56.27L64.05 56.36L64.03 56.38Z" fill="#01518D"></path> <path d="M136.2 122.66C136.2 122.66 138.71 121.2 140.03 120.19L138.26 124.89L135.65 125.59L136.21 122.67L136.2 122.66Z" fill="#01518D"></path> <path fill-rule="evenodd" clip-rule="evenodd" d="M55.02 90.98L54.48 90.52L53.59 91.39L55.02 90.98Z" fill="#01518D"></path> <path d="M104.65 30.8C104.65 37.53 101.17 41.2 94.99 41.2H90.58V53.04H86.77V20.54H94.99C101.17 20.54 104.65 24.26 104.65 30.8ZM100.8 30.8C100.8 26.39 98.9 24.16 94.99 24.16H90.58V37.58H94.99C98.89 37.58 100.8 35.44 100.8 30.8Z" fill="#01518D"></path> <path d="M108.69 43.66V29.91C108.69 23.5 112.31 19.93 117.75 19.93C123.19 19.93 126.76 23.37 127.09 29.64H123.33C123.05 25.46 121.1 23.51 117.71 23.51C114.6 23.51 112.51 25.55 112.51 29.92V43.67C112.51 47.99 114.69 50.03 117.85 50.03C121.29 50.03 123.19 48.03 123.56 43.95H127.32C126.95 50.13 123.51 53.61 117.85 53.61C112.19 53.61 108.7 50.08 108.7 43.67L108.69 43.66Z" fill="#01518D"></path> <path d="M131.27 42.83V30.71C131.27 24.07 134.89 19.94 140.93 19.94C146.97 19.94 150.54 24.07 150.54 30.71V42.83C150.54 49.52 146.96 53.65 140.93 53.65C134.9 53.65 131.27 49.52 131.27 42.83ZM146.64 42.83V30.71C146.64 26.21 144.69 23.65 140.93 23.65C137.17 23.65 135.17 26.2 135.17 30.71V42.83C135.17 47.38 137.12 49.94 140.93 49.94C144.74 49.94 146.64 47.39 146.64 42.83Z" fill="#01518D"></path> <path d="M158.6 86.69C157.4 84.64 154.56 82.61 154.5 82.19C153.72 76.88 155.84 71.94 157.91 67.19C159.29 62.79 155.76 61.63 153.32 60.65C148.26 79.62 139.67 112.99 138.19 123.54C137.69 123.78 137.19 124 136.71 124.22C137.28 123.32 137.84 122.35 138.51 121.28C127.56 128.54 116.48 125.04 105.42 122.8L105.65 122.84L102.53 115.32L110.11 117.04C115.64 117.99 120.93 118.89 125.25 117.37C131.99 115 128.71 110.69 126.17 108.53C131.86 116.28 113.44 119.72 102.56 111.84L100.81 111.2L100.64 110.78L96.94 109.42L97.11 109.84L93.47 108.51L93.37 108.12L90.09 106.93L90.19 107.3L87.41 106.29L87.36 105.9L84.33 104.8L84.38 105.18L79.31 103.33L77.36 102.62L74.24 126.33L71.41 125.96L74.61 101.62L73.19 101.1C73.09 101.08 72.98 101.06 72.88 101.03L65.04 130.27L62.29 129.53L70.12 100.32C69.54 100.15 68.97 99.96 68.4 99.76L58.93 122.61L56.3 121.52L65.76 98.69C65.21 98.44 64.66 98.18 64.13 97.9L55.29 113.21L52.82 111.78L61.47 96.8L61.3 96.74H61.26L59.64 96.13L45.12 115.06L42.86 113.32L56.84 95.1L56.76 95.07L55.58 94.64L54.95 94.11L35.19 113.87L33.17 111.85L54.5 90.52C54.09 90.07 53.69 89.62 53.3 89.15L33.72 104.17L31.98 101.91L51.57 86.88C51.22 86.38 50.89 85.88 50.57 85.37L35.26 94.21L33.83 91.74L49.16 82.89C48.88 82.35 48.62 81.81 48.37 81.26L25.51 90.73L24.42 88.1L47.3 78.62C47.1 78.05 46.91 77.48 46.74 76.9L17.5 84.74L16.76 81.99L46.04 74.15C45.92 73.57 45.81 72.98 45.72 72.38L21.08 75.62L20.71 72.79L45.41 69.54C45.37 68.95 45.34 68.36 45.33 67.76H27.4V64.91H45.37C45.43 63.95 45.54 63 45.67 62.06C41.48 60.31 38.26 58.3 35.86 56.21L35.39 56.08C35.96 56.59 36.58 57.1 37.25 57.61H37.15C36.72 57.66 36.28 57.68 35.82 57.64C29.34 57.26 5.77 53.56 8.42 61.35C2.85 65.6 4.43 72.21 4.75 79.19L1.68 81.56C0.0599966 82.81 -0.120003 84.56 0.0599967 86.53C4.25 93.61 19.02 142.99 22.41 145.69C26.77 149.15 62.29 135.47 71.4 136.88C77.91 142.95 83.75 143.04 91.84 137.07C98.96 137.92 135.85 148.79 139.78 145.42C147.66 129.26 146.77 114.6 158.51 90.64C159.18 89.27 159.41 88.07 158.6 86.69ZM4.47 84.46C4.86 83.02 7.05 82.82 8.4 82.96L19.53 128.49C18.56 128.39 7.22 93.07 4.46 84.46H4.47ZM98.93 114.26L102.18 122.19C100.44 121.9 98.71 121.66 96.97 121.53L94.69 113.01L98.93 114.25V114.26ZM79.33 125.78H79.32V108.5L85.05 110.18L86.66 122.4C84.21 123.08 81.77 124.16 79.34 125.78H79.33ZM89.48 121.78L88.05 111.06L91.47 112.06L93.99 121.42C92.49 121.42 90.98 121.54 89.48 121.78ZM139.78 130.53L150.91 85C152.27 84.86 154.46 85.06 154.84 86.5C152.08 95.11 140.74 130.43 139.77 130.53H139.78Z" fill="#01518D"></path> </g> <defs> <clipPath id="clip0_1_2"> <rect width="485.94" height="146.26" fill="white"></rect> </clipPath> </defs> </svg> 