<?xml version="1.0" encoding="UTF-8"?> <svg xmlns="http://www.w3.org/2000/svg" width="197" height="315" viewBox="0 0 197 315" fill="none"> <g clip-path="url(#clip0_1_87)"> <path d="M0 0V198.263H197V0H0ZM138.612 154.562L98.5017 125.366L58.392 154.562L73.712 107.319L33.6023 78.1225H83.1782L98.4982 30.8793L113.818 78.1225H163.398L123.288 107.319L138.608 154.562H138.612Z" fill="#1D1D1B"></path> <path d="M197 246.887H0V249.193H197V246.887Z" fill="#1D1D1B"></path> <path d="M147.983 271.591C144.033 271.591 140.818 268.387 140.818 264.451C140.818 260.515 144.033 257.311 147.983 257.311C151.932 257.311 155.147 260.515 155.147 264.451C155.147 268.387 151.932 271.591 147.983 271.591ZM147.983 259.825C145.453 259.825 143.397 261.899 143.397 264.451C143.397 267.003 145.453 269.077 147.983 269.077C150.513 269.077 152.568 267.003 152.568 264.451C152.568 261.899 150.513 259.825 147.983 259.825Z" fill="#1D1D1B"></path> <path d="M11.3038 266.408C10.5659 267.965 8.98825 269.045 7.16459 269.045C4.63467 269.045 2.57911 266.972 2.57911 264.419C2.57911 261.867 4.63467 259.793 7.16459 259.793C8.98825 259.793 10.5659 260.871 11.3038 262.43H14.0446C13.1767 259.459 10.4219 257.28 7.16459 257.28C3.21511 257.28 0 260.48 0 264.419C0 268.359 3.21511 271.559 7.16459 271.559C10.4219 271.559 13.1802 269.38 14.0446 266.408H11.3038Z" fill="#1D1D1B"></path> <path d="M167.895 266.408C167.157 267.965 165.58 269.045 163.756 269.045C161.226 269.045 159.171 266.972 159.171 264.419C159.171 261.867 161.226 259.793 163.756 259.793C165.58 259.793 167.157 260.871 167.895 262.43H170.636C169.768 259.459 167.013 257.28 163.756 257.28C159.807 257.28 156.592 260.483 156.592 264.419C156.592 268.355 159.807 271.559 163.756 271.559C167.013 271.559 169.772 269.38 170.636 266.408H167.895Z" fill="#1D1D1B"></path> <path d="M66.5053 264.444C67.2397 263.969 67.7738 262.744 67.7738 261.68V261.606C67.7738 259.36 65.9009 257.533 63.5994 257.533H56.3926V271.461H63.7013C66.0028 271.461 67.8757 269.633 67.8757 267.387V267.313C67.8757 266.197 67.208 264.951 66.5053 264.447V264.444ZM65.1982 261.606V261.73C65.1982 262.589 64.4814 263.289 63.5994 263.289H58.9682V260.05H63.5994C64.4814 260.05 65.1982 260.751 65.1982 261.61V261.606ZM65.2966 267.387C65.2966 268.246 64.5797 268.947 63.6978 268.947H58.9682V265.708H63.6978C64.5797 265.708 65.2966 266.408 65.2966 267.268V267.391V267.387Z" fill="#1D1D1B"></path> <path d="M137.793 264.444C138.527 263.969 139.061 262.744 139.061 261.68V261.606C139.061 259.36 137.188 257.533 134.887 257.533H127.512V271.461H134.985C137.287 271.461 139.16 269.633 139.16 267.387V267.313C139.16 266.197 138.492 264.951 137.789 264.447L137.793 264.444ZM136.486 261.606V261.73C136.486 262.589 135.769 263.289 134.887 263.289H130.091V260.05H134.887C135.769 260.05 136.486 260.751 136.486 261.61V261.606ZM136.584 267.387C136.584 268.246 135.867 268.947 134.985 268.947H130.087V265.708H134.985C135.867 265.708 136.584 266.408 136.584 267.268V267.391V267.387Z" fill="#1D1D1B"></path> <path d="M91.7588 271.411H96.137V268.929H94.3344V257.649H84.6434V264.268C84.6434 267.507 83.5576 268.929 82.9638 268.929H81.3721V271.411H91.7588ZM86.337 268.929C86.3827 268.834 86.4319 268.736 86.4776 268.634C86.973 267.496 87.2225 266.007 87.2225 264.271V260.17H91.7588V268.933H86.337V268.929Z" fill="#1D1D1B"></path> <path d="M27.7518 271.411H25.1727V260.047H18.3981V271.411H15.819V257.529H27.7518V271.411Z" fill="#1D1D1B"></path> <path d="M37.4077 257.529H30.1623V271.408H32.7414V266.472H37.4077C39.8182 266.472 41.7788 264.557 41.7788 262.205V261.796C41.7788 259.445 39.8182 257.529 37.4077 257.529ZM39.2032 262.208C39.2032 263.173 38.3986 263.958 37.4077 263.958H32.7414V260.047H37.4077C38.3986 260.047 39.2032 260.832 39.2032 261.796V262.205V262.208Z" fill="#1D1D1B"></path> <path d="M192.629 262.465H187.963V257.529H185.383V271.408H192.629C195.039 271.408 197 269.493 197 267.141V266.729C197 264.377 195.039 262.462 192.629 262.462V262.465ZM194.424 267.144C194.424 268.109 193.62 268.894 192.629 268.894H187.963V264.983H192.629C193.62 264.983 194.424 265.768 194.424 266.732V267.144Z" fill="#1D1D1B"></path> <path d="M80.5534 260.047V257.529H70.2545V263.265V265.711V271.411H80.5534V268.894H72.8301V265.711H79.6996V263.265H72.8301V260.047H80.5534Z" fill="#1D1D1B"></path> <path d="M124.679 271.411H122.1V261.592L115.034 271.411H112.43V257.529H115.009V267.091L121.886 257.529H124.679V271.411Z" fill="#1D1D1B"></path> <path d="M183.665 257.529H178.897H176.318H171.55V260.047H176.318V271.411H178.897V260.047H183.665V257.529Z" fill="#1D1D1B"></path> <path d="M99.5524 257.529V266.046C99.5524 267.088 99.3064 267.841 98.8215 268.288C98.4069 268.669 97.7815 268.869 96.9592 268.88V271.397C98.4631 271.383 99.6859 270.954 100.592 270.119C101.611 269.179 102.128 267.81 102.128 266.049V260.05H107.016V271.309H109.595V257.533H99.5524V257.529Z" fill="#1D1D1B"></path> <path d="M52.4466 271.411H55.2717L48.9012 257.533H46.6138L40.7422 271.411H43.5322L44.6707 268.722H51.2133L52.4466 271.411ZM45.6896 266.31L47.8085 261.17L50.1065 266.31H45.6896Z" fill="#1D1D1B"></path> <path d="M68.8349 239.212C61.217 239.212 55.0187 233.033 55.0187 225.439C55.0187 217.845 61.217 211.666 68.8349 211.666C76.4528 211.666 82.6511 217.845 82.6511 225.439C82.6511 233.033 76.4528 239.212 68.8349 239.212ZM68.8349 216.514C63.9578 216.514 59.9907 220.517 59.9907 225.436C59.9907 230.354 63.9578 234.357 68.8349 234.357C73.712 234.357 77.6791 230.354 77.6791 225.436C77.6791 220.517 73.712 216.514 68.8349 216.514Z" fill="#1D1D1B"></path> <path d="M124.999 239.212C117.381 239.212 111.183 233.033 111.183 225.439C111.183 217.845 117.381 211.666 124.999 211.666C132.617 211.666 138.815 217.845 138.815 225.439C138.815 233.033 132.617 239.212 124.999 239.212ZM124.999 216.514C120.122 216.514 116.155 220.517 116.155 225.436C116.155 230.354 120.122 234.357 124.999 234.357C129.876 234.357 133.843 230.354 133.843 225.436C133.843 220.517 129.876 216.514 124.999 216.514Z" fill="#1D1D1B"></path> <path d="M21.803 229.213C20.3764 232.216 17.3335 234.297 13.8197 234.297C8.94257 234.297 4.97551 230.294 4.97551 225.376C4.97551 220.457 8.94257 216.454 13.8197 216.454C17.337 216.454 20.3799 218.535 21.803 221.538H27.0912C25.4187 215.803 20.1023 211.6 13.8197 211.6C6.19831 211.6 0 217.782 0 225.376C0 232.97 6.1983 239.148 13.8162 239.148C20.0988 239.148 25.4152 234.945 27.0877 229.21H21.7995L21.803 229.213Z" fill="#1D1D1B"></path> <path d="M49.8008 225.421C51.2204 224.506 52.2499 222.144 52.2499 220.088V219.947C52.2499 215.613 48.6377 212.089 44.1963 212.089H30.2923V238.955H44.3896C48.831 238.955 52.4432 235.431 52.4432 231.097V230.956C52.4432 228.801 51.1536 226.4 49.8043 225.425L49.8008 225.421ZM47.2779 219.947V220.186C47.2779 221.845 45.897 223.193 44.1963 223.193H35.2643V216.944H44.1963C45.8935 216.944 47.2779 218.292 47.2779 219.95V219.947ZM47.4712 231.093C47.4712 232.751 46.0902 234.1 44.3896 234.1H35.2643V227.851H44.3896C46.0867 227.851 47.4712 229.199 47.4712 230.857V231.097V231.093Z" fill="#1D1D1B"></path> <path d="M100.842 222.524H91.3372V216.94H107.55V212.089H86.3652V238.86H100.842C105.357 238.86 109.029 235.276 109.029 230.871V230.512C109.029 226.108 105.357 222.524 100.842 222.524ZM104.057 230.871C104.057 232.6 102.616 234.008 100.842 234.008H91.3372V227.28H100.842C102.613 227.28 104.057 228.689 104.057 230.417V230.875V230.871Z" fill="#1D1D1B"></path> <path d="M158.64 238.86H167.087V234.008H163.612V212.318H144.915V225.084C144.915 231.333 142.821 234.008 141.676 234.008H138.608V238.86H158.64ZM148.183 234.008C148.274 233.825 148.362 233.635 148.45 233.434C149.406 231.241 149.887 228.432 149.887 225.084V217.169H158.64V234.008H148.183Z" fill="#1D1D1B"></path> <path d="M191.554 238.86H197L184.712 212.089H180.303L168.978 238.86H174.357L176.553 233.67H189.171L191.554 238.86ZM178.521 229.02L182.604 219.105L187.035 229.02H178.518H178.521Z" fill="#1D1D1B"></path> <path d="M0.562195 296.552H3.71054C4.14625 296.552 4.51871 296.615 4.82441 296.742C5.13011 296.869 5.37958 297.038 5.57284 297.246C5.7661 297.453 5.90665 297.696 5.9945 297.967C6.08234 298.238 6.12802 298.513 6.12802 298.795C6.12802 299.076 6.08234 299.361 5.9945 299.629C5.90665 299.897 5.7661 300.136 5.57284 300.344C5.37958 300.551 5.13011 300.72 4.82441 300.847C4.51871 300.974 4.14625 301.037 3.71054 301.037H2.09772V303.547H0.562195V296.552ZM3.2924 299.844C3.46809 299.844 3.63675 299.83 3.8019 299.805C3.96353 299.78 4.1076 299.728 4.23058 299.654C4.35356 299.58 4.45546 299.474 4.52925 299.337C4.60304 299.199 4.64169 299.02 4.64169 298.798C4.64169 298.576 4.60304 298.397 4.52925 298.259C4.45546 298.122 4.35356 298.017 4.23058 297.943C4.1076 297.869 3.96353 297.816 3.8019 297.791C3.64026 297.767 3.46809 297.753 3.2924 297.753H2.09772V299.851H3.2924V299.844Z" fill="#1D1D1B"></path> <path d="M9.39229 303.674C8.99524 303.674 8.63683 303.611 8.31708 303.488C7.99732 303.364 7.72325 303.185 7.49485 302.952C7.26646 302.72 7.09077 302.442 6.96779 302.115C6.8448 301.787 6.78156 301.421 6.78156 301.016C6.78156 300.611 6.8448 300.245 6.96779 299.914C7.09077 299.583 7.26646 299.305 7.49485 299.073C7.72325 298.84 7.99732 298.661 8.31708 298.534C8.63683 298.407 8.99524 298.344 9.39229 298.344C9.78935 298.344 10.1513 298.407 10.4745 298.534C10.7978 298.661 11.0719 298.84 11.3003 299.073C11.5287 299.305 11.7044 299.587 11.8273 299.914C11.9503 300.245 12.0136 300.611 12.0136 301.016C12.0136 301.421 11.9503 301.787 11.8273 302.115C11.7044 302.442 11.5287 302.72 11.3003 302.952C11.0719 303.185 10.7978 303.361 10.4745 303.488C10.1513 303.611 9.79286 303.674 9.39229 303.674ZM9.39229 302.636C9.62772 302.636 9.82449 302.59 9.98261 302.498C10.1407 302.407 10.2707 302.284 10.3656 302.132C10.4605 301.977 10.5272 301.805 10.5659 301.611C10.6045 301.417 10.6256 301.22 10.6256 301.02C10.6256 300.819 10.6045 300.618 10.5659 300.421C10.5272 300.224 10.4605 300.051 10.3656 299.9C10.2707 299.749 10.1442 299.629 9.98261 299.534C9.82097 299.439 9.6242 299.393 9.39229 299.393C9.16038 299.393 8.96361 299.442 8.80549 299.534C8.64737 299.629 8.52439 299.752 8.42952 299.9C8.33465 300.051 8.26788 300.224 8.22923 300.421C8.19058 300.618 8.1695 300.815 8.1695 301.02C8.1695 301.224 8.19058 301.421 8.22923 301.611C8.26788 301.805 8.33465 301.977 8.42952 302.132C8.52439 302.287 8.65089 302.407 8.80549 302.498C8.96361 302.59 9.15687 302.636 9.39229 302.636Z" fill="#1D1D1B"></path> <path d="M15.3095 303.674C14.923 303.674 14.5751 303.611 14.2624 303.484C13.9497 303.357 13.6826 303.178 13.4613 302.949C13.2399 302.72 13.0677 302.449 12.9412 302.132C12.8183 301.815 12.755 301.467 12.755 301.09C12.755 300.713 12.8112 300.333 12.9272 299.999C13.0396 299.664 13.2083 299.372 13.4297 299.126C13.651 298.879 13.9216 298.689 14.2413 298.552C14.5611 298.414 14.9265 298.348 15.3376 298.348C15.6363 298.348 15.9244 298.386 16.202 298.464C16.4796 298.541 16.7256 298.661 16.9469 298.823C17.1648 298.985 17.344 299.185 17.481 299.425C17.6181 299.668 17.6954 299.949 17.7165 300.266H16.3566C16.2653 299.685 15.9244 299.393 15.3306 299.393C15.1092 299.393 14.923 299.442 14.7719 299.545C14.6208 299.647 14.4978 299.777 14.4065 299.935C14.3116 300.097 14.2448 300.273 14.2062 300.47C14.1675 300.668 14.1465 300.854 14.1465 301.037C14.1465 301.22 14.1675 301.407 14.2062 301.597C14.2448 301.787 14.3081 301.96 14.3959 302.111C14.4838 302.266 14.6033 302.389 14.7543 302.488C14.9054 302.586 15.0882 302.636 15.3025 302.636C15.6363 302.636 15.8893 302.544 16.072 302.357C16.2512 302.171 16.3637 301.921 16.4093 301.608H17.7481C17.6567 302.28 17.3967 302.794 16.9645 303.146C16.5358 303.498 15.9842 303.674 15.313 303.674H15.3095Z" fill="#1D1D1B"></path> <path d="M20.921 303.674C20.5345 303.674 20.1867 303.611 19.8739 303.484C19.5612 303.357 19.2942 303.178 19.0728 302.949C18.8514 302.72 18.6792 302.449 18.5527 302.132C18.4298 301.815 18.3665 301.467 18.3665 301.09C18.3665 300.713 18.4227 300.333 18.5387 299.999C18.6511 299.664 18.8198 299.372 19.0412 299.126C19.2625 298.879 19.5331 298.689 19.8528 298.552C20.1726 298.414 20.538 298.348 20.9491 298.348C21.2478 298.348 21.5359 298.386 21.8135 298.464C22.0911 298.541 22.3371 298.661 22.5585 298.823C22.7763 298.985 22.9555 299.185 23.0925 299.425C23.2296 299.668 23.3069 299.949 23.328 300.266H21.9681C21.8768 299.685 21.5359 299.393 20.9421 299.393C20.7207 299.393 20.5345 299.442 20.3834 299.545C20.2323 299.647 20.1094 299.777 20.018 299.935C19.9231 300.097 19.8564 300.273 19.8177 300.47C19.7791 300.668 19.758 300.854 19.758 301.037C19.758 301.22 19.7791 301.407 19.8177 301.597C19.8564 301.787 19.9196 301.96 20.0075 302.111C20.0953 302.266 20.2148 302.389 20.3659 302.488C20.5169 302.586 20.6997 302.636 20.914 302.636C21.2478 302.636 21.5008 302.544 21.6835 302.357C21.8627 302.171 21.9752 301.921 22.0208 301.608H23.3596C23.2682 302.28 23.0082 302.794 22.576 303.146C22.1438 303.498 21.5957 303.674 20.9245 303.674H20.921Z" fill="#1D1D1B"></path> <path d="M24.1396 298.481H25.4714V301.91L27.3794 298.481H28.9535V303.547H27.6218V300.118L25.7138 303.547H24.1396V298.481Z" fill="#1D1D1B"></path> <path d="M30.0076 298.481H31.3394V301.91L33.2473 298.481H34.8215V303.547H33.4898V300.118L31.5818 303.547H30.0076V298.481ZM32.404 297.872C32.1756 297.872 31.9613 297.848 31.7645 297.795C31.5642 297.742 31.3921 297.661 31.241 297.545C31.0899 297.432 30.9704 297.284 30.8826 297.108C30.7947 296.932 30.749 296.717 30.749 296.46H31.7856C31.7997 296.682 31.8524 296.844 31.9437 296.95C32.0351 297.055 32.1897 297.108 32.404 297.108C32.6184 297.108 32.7659 297.059 32.8643 296.957C32.9627 296.855 33.0154 296.689 33.0225 296.46H34.059C34.059 296.714 34.0133 296.932 33.9255 297.108C33.8376 297.284 33.7182 297.429 33.5671 297.545C33.416 297.657 33.2403 297.742 33.04 297.795C32.8362 297.848 32.6254 297.872 32.404 297.872Z" fill="#1D1D1B"></path> <path d="M38.272 303.674C37.8855 303.674 37.5377 303.611 37.2249 303.484C36.9122 303.357 36.6452 303.178 36.4238 302.949C36.2024 302.72 36.0303 302.449 35.9038 302.132C35.7808 301.815 35.7175 301.467 35.7175 301.09C35.7175 300.713 35.7737 300.333 35.8897 299.999C36.0021 299.664 36.1708 299.372 36.3922 299.126C36.6135 298.879 36.8841 298.689 37.2039 298.552C37.5236 298.414 37.889 298.348 38.3002 298.348C38.5988 298.348 38.887 298.386 39.1645 298.464C39.4421 298.541 39.6881 298.661 39.9095 298.823C40.1273 298.985 40.3065 299.185 40.4436 299.425C40.5806 299.668 40.6579 299.949 40.679 300.266H39.3192C39.2278 299.685 38.887 299.393 38.2931 299.393C38.0718 299.393 37.8855 299.442 37.7344 299.545C37.5833 299.647 37.4604 299.777 37.369 299.935C37.2741 300.097 37.2074 300.273 37.1687 300.47C37.1301 300.668 37.109 300.854 37.109 301.037C37.109 301.22 37.1301 301.407 37.1687 301.597C37.2074 301.787 37.2706 301.96 37.3585 302.111C37.4463 302.266 37.5658 302.389 37.7169 302.488C37.868 302.586 38.0507 302.636 38.265 302.636C38.5988 302.636 38.8518 302.544 39.031 302.357C39.2102 302.171 39.3227 301.921 39.3683 301.608H40.7071C40.6157 302.28 40.3557 302.794 39.9235 303.146C39.4948 303.498 38.9432 303.674 38.272 303.674Z" fill="#1D1D1B"></path> <path d="M41.4907 298.481H42.8786V300.548L44.7374 298.481H46.3713L44.2595 300.717L46.6454 303.547H44.9623L43.1738 301.442L42.8821 301.766V303.551H41.4942V298.485L41.4907 298.481Z" fill="#1D1D1B"></path> <path d="M48.6096 303.674C48.3671 303.674 48.1422 303.646 47.9349 303.586C47.7276 303.526 47.5449 303.435 47.3868 303.312C47.2287 303.188 47.1092 303.03 47.0213 302.84C46.9335 302.65 46.8878 302.424 46.8878 302.164C46.8878 301.875 46.937 301.639 47.0389 301.453C47.1408 301.266 47.2708 301.118 47.4289 301.006C47.5871 300.893 47.7698 300.812 47.9771 300.756C48.1809 300.699 48.3882 300.657 48.599 300.622C48.8063 300.59 49.0137 300.562 49.2139 300.544C49.4177 300.523 49.5969 300.495 49.7515 300.456C49.9097 300.418 50.0326 300.361 50.124 300.284C50.2154 300.21 50.2575 300.101 50.2505 299.956C50.2505 299.812 50.2259 299.696 50.1767 299.604C50.1275 299.513 50.0643 299.442 49.9799 299.393C49.8991 299.344 49.8043 299.312 49.6953 299.295C49.5864 299.277 49.4704 299.27 49.3475 299.27C49.0734 299.27 48.859 299.33 48.7009 299.446C48.5428 299.562 48.4515 299.759 48.4269 300.034H47.0389C47.06 299.713 47.1408 299.446 47.2849 299.224C47.4289 299.006 47.6117 298.83 47.833 298.7C48.0544 298.569 48.3039 298.474 48.5779 298.421C48.852 298.365 49.1331 298.337 49.4177 298.337C49.6707 298.337 49.9307 298.355 50.1908 298.39C50.4508 298.425 50.6897 298.495 50.9041 298.601C51.1184 298.707 51.2941 298.851 51.4311 299.041C51.5682 299.231 51.6349 299.474 51.6349 299.777V302.414C51.6349 302.643 51.649 302.861 51.6736 303.069C51.6982 303.276 51.7439 303.435 51.8106 303.54H50.4016C50.377 303.463 50.3559 303.382 50.3383 303.301C50.3208 303.22 50.3102 303.136 50.3032 303.051C50.0818 303.28 49.8218 303.438 49.5196 303.53C49.221 303.621 48.9118 303.667 48.599 303.667L48.6096 303.674ZM49.1296 302.752C49.4037 302.752 49.6145 302.706 49.7656 302.614C49.9167 302.523 50.0256 302.414 50.0994 302.287C50.1697 302.16 50.2154 302.03 50.2329 301.9C50.2505 301.77 50.2575 301.664 50.2575 301.586V301.065C50.1978 301.118 50.1275 301.157 50.0432 301.189C49.9589 301.217 49.864 301.241 49.7586 301.263C49.6532 301.284 49.5477 301.298 49.4353 301.312C49.3229 301.326 49.2139 301.34 49.1015 301.361C48.9891 301.382 48.8872 301.407 48.7888 301.439C48.6904 301.47 48.6061 301.516 48.5288 301.572C48.455 301.629 48.3917 301.699 48.3496 301.784C48.3039 301.868 48.2828 301.977 48.2828 302.108C48.2828 302.238 48.3039 302.343 48.3496 302.424C48.3952 302.505 48.4585 302.572 48.5358 302.622C48.6131 302.671 48.7044 302.706 48.8099 302.724C48.9153 302.745 49.0207 302.752 49.1331 302.752H49.1296Z" fill="#1D1D1B"></path> <path d="M53.7924 301.646C53.434 301.586 53.1424 301.414 52.9175 301.125C52.6926 300.837 52.5802 300.485 52.5802 300.066C52.5802 299.844 52.6223 299.636 52.7032 299.442C52.784 299.249 52.8999 299.08 53.051 298.939C53.2021 298.795 53.3778 298.682 53.5781 298.601C53.7784 298.52 54.0068 298.478 54.2527 298.478H57.3132V303.544H55.9253V301.759H55.2717L53.8943 303.544H52.1937L53.796 301.643L53.7924 301.646ZM55.9253 299.492H54.8185C54.4987 299.492 54.2808 299.548 54.1649 299.664C54.0489 299.777 53.9892 299.932 53.9892 300.118C53.9892 300.305 54.0454 300.47 54.1614 300.59C54.2738 300.706 54.4952 300.766 54.822 300.766H55.9288V299.492H55.9253Z" fill="#1D1D1B"></path> <path d="M61.2346 296.552H67.0429V303.547H65.5074V297.844H62.7701V303.547H61.2346V296.552Z" fill="#1D1D1B"></path> <path d="M69.7555 303.674C69.5131 303.674 69.2882 303.646 69.0809 303.586C68.8735 303.526 68.6908 303.435 68.5327 303.312C68.3746 303.188 68.2551 303.03 68.1673 302.84C68.0794 302.65 68.0338 302.424 68.0338 302.164C68.0338 301.875 68.0829 301.639 68.1848 301.453C68.2867 301.266 68.4168 301.118 68.5749 301.006C68.733 300.893 68.9157 300.812 69.123 300.756C69.3268 300.699 69.5341 300.657 69.745 300.622C69.9523 300.59 70.1596 300.562 70.3599 300.544C70.5602 300.523 70.7429 300.495 70.8975 300.456C71.0556 300.418 71.1786 300.361 71.2699 300.284C71.3613 300.21 71.4035 300.101 71.3964 299.956C71.3964 299.812 71.3718 299.696 71.3226 299.604C71.2735 299.513 71.2102 299.442 71.1259 299.393C71.0451 299.344 70.9502 299.312 70.8413 299.295C70.7323 299.277 70.6164 299.27 70.4934 299.27C70.2193 299.27 70.005 299.33 69.8469 299.446C69.6887 299.562 69.5974 299.759 69.5728 300.034H68.1848C68.2059 299.713 68.2867 299.446 68.4308 299.224C68.5749 299.006 68.7576 298.83 68.979 298.7C69.2003 298.569 69.4498 298.474 69.7239 298.421C69.998 298.365 70.2791 298.337 70.5637 298.337C70.8167 298.337 71.0767 298.355 71.3367 298.39C71.5967 298.425 71.8357 298.495 72.05 298.601C72.2643 298.707 72.44 298.851 72.5771 299.041C72.7141 299.231 72.7809 299.474 72.7809 299.777V302.414C72.7809 302.643 72.7949 302.861 72.8195 303.069C72.8441 303.276 72.8898 303.435 72.9566 303.54H71.5475C71.5229 303.463 71.5019 303.382 71.4843 303.301C71.4667 303.22 71.4562 303.136 71.4491 303.051C71.2278 303.28 70.9678 303.438 70.6656 303.53C70.3669 303.621 70.0577 303.667 69.745 303.667L69.7555 303.674ZM70.2755 302.752C70.5496 302.752 70.7604 302.706 70.9115 302.614C71.0626 302.523 71.1716 302.414 71.2453 302.287C71.3156 302.16 71.3613 302.03 71.3789 301.9C71.3964 301.77 71.4035 301.664 71.4035 301.586V301.065C71.3437 301.118 71.2735 301.157 71.1891 301.189C71.1048 301.217 71.0099 301.241 70.9045 301.263C70.7991 301.284 70.6937 301.298 70.5812 301.312C70.4688 301.326 70.3599 301.34 70.2474 301.361C70.135 301.382 70.0331 301.407 69.9347 301.439C69.8363 301.47 69.752 301.516 69.6747 301.572C69.6009 301.629 69.5412 301.699 69.4955 301.784C69.4498 301.868 69.4287 301.977 69.4287 302.108C69.4287 302.238 69.4498 302.343 69.4955 302.424C69.5412 302.505 69.6044 302.572 69.6817 302.622C69.759 302.671 69.8504 302.706 69.9558 302.724C70.0612 302.745 70.1666 302.752 70.2791 302.752H70.2755Z" fill="#1D1D1B"></path> <path d="M73.8632 298.481H75.1843V299.129H75.2054C75.3741 298.854 75.5884 298.654 75.852 298.531C76.112 298.407 76.4001 298.344 76.7128 298.344C77.1099 298.344 77.4542 298.418 77.7389 298.569C78.027 298.721 78.2624 298.918 78.4522 299.168C78.6419 299.418 78.7824 299.706 78.8738 300.034C78.9652 300.365 79.0108 300.71 79.0108 301.069C79.0108 301.407 78.9652 301.734 78.8738 302.048C78.7824 302.361 78.6454 302.639 78.4592 302.882C78.2729 303.125 78.041 303.315 77.7635 303.459C77.4859 303.604 77.1626 303.674 76.7901 303.674C76.4774 303.674 76.1893 303.611 75.9257 303.484C75.6622 303.357 75.4444 303.171 75.2757 302.921H75.2546V305.322H73.8667V298.481H73.8632ZM76.4142 302.636C76.6426 302.636 76.8323 302.59 76.9869 302.498C77.1415 302.407 77.2645 302.287 77.3594 302.139C77.4542 301.991 77.521 301.822 77.5597 301.629C77.5983 301.435 77.6194 301.234 77.6194 301.027C77.6194 300.819 77.5983 300.625 77.5561 300.428C77.514 300.231 77.4437 300.059 77.3453 299.904C77.2469 299.749 77.1204 299.625 76.9693 299.53C76.8147 299.435 76.6285 299.39 76.4071 299.39C76.1858 299.39 75.989 299.439 75.8344 299.53C75.6798 299.625 75.5568 299.749 75.4619 299.897C75.3671 300.048 75.3003 300.22 75.2616 300.421C75.223 300.622 75.2019 300.822 75.2019 301.023C75.2019 301.224 75.223 301.435 75.2652 301.625C75.3073 301.819 75.3776 301.988 75.469 302.136C75.5638 302.284 75.6868 302.403 75.8414 302.495C75.996 302.586 76.1858 302.632 76.4142 302.632V302.636Z" fill="#1D1D1B"></path> <path d="M81.0699 299.53H79.4078V298.481H84.1233V299.53H82.4613V303.547H81.0734V299.53H81.0699Z" fill="#1D1D1B"></path> <path d="M84.7453 298.481H86.077V301.91L87.985 298.481H89.5592V303.547H88.2275V300.118L86.3195 303.547H84.7453V298.481Z" fill="#1D1D1B"></path> <path d="M91.692 301.646C91.3336 301.586 91.042 301.414 90.8171 301.125C90.5922 300.837 90.4798 300.485 90.4798 300.066C90.4798 299.844 90.5219 299.636 90.6028 299.442C90.6836 299.249 90.7995 299.08 90.9506 298.939C91.1017 298.795 91.2774 298.682 91.4777 298.601C91.678 298.52 91.9029 298.478 92.1523 298.478H95.2128V303.544H93.8249V301.759H93.1713L91.7939 303.544H90.0933L91.6955 301.643L91.692 301.646ZM93.8249 299.492H92.7181C92.3983 299.492 92.1805 299.548 92.0645 299.664C91.9485 299.777 91.8888 299.932 91.8888 300.118C91.8888 300.305 91.945 300.47 92.061 300.59C92.1734 300.706 92.3948 300.766 92.7216 300.766H93.8284V299.492H93.8249Z" fill="#1D1D1B"></path> <path d="M102.262 303.706C101.72 303.706 101.239 303.614 100.814 303.428C100.389 303.241 100.03 302.984 99.7386 302.657C99.447 302.329 99.2221 301.946 99.064 301.506C98.9058 301.065 98.8286 300.59 98.8286 300.08C98.8286 299.569 98.9058 299.08 99.064 298.629C99.2221 298.179 99.447 297.788 99.7386 297.453C100.034 297.119 100.392 296.858 100.814 296.668C101.239 296.478 101.72 296.383 102.262 296.383C102.641 296.383 103.003 296.439 103.347 296.548C103.692 296.661 104.001 296.823 104.271 297.034C104.542 297.246 104.767 297.51 104.943 297.823C105.118 298.136 105.231 298.495 105.276 298.9H103.79C103.765 298.724 103.706 298.562 103.614 298.414C103.523 298.267 103.411 298.14 103.273 298.027C103.136 297.914 102.982 297.83 102.81 297.767C102.637 297.703 102.455 297.675 102.269 297.675C101.924 297.675 101.629 297.742 101.39 297.876C101.148 298.01 100.954 298.189 100.803 298.414C100.652 298.64 100.543 298.897 100.477 299.185C100.406 299.474 100.375 299.77 100.375 300.076C100.375 300.382 100.41 300.657 100.477 300.935C100.543 301.213 100.652 301.463 100.803 301.685C100.954 301.907 101.148 302.086 101.39 302.22C101.633 302.354 101.924 302.421 102.269 302.421C102.739 302.421 103.105 302.277 103.368 301.991C103.632 301.703 103.794 301.326 103.853 300.854H105.34C105.301 301.298 105.199 301.696 105.037 302.044C104.876 302.393 104.658 302.692 104.391 302.942C104.124 303.192 103.811 303.378 103.453 303.509C103.094 303.639 102.701 303.706 102.269 303.706H102.262Z" fill="#1D1D1B"></path> <path d="M106.274 298.481H109.18C109.401 298.481 109.609 298.506 109.806 298.555C110.002 298.605 110.171 298.678 110.319 298.781C110.466 298.883 110.582 299.013 110.666 299.178C110.751 299.34 110.793 299.534 110.793 299.756C110.793 300.006 110.73 300.217 110.607 300.397C110.484 300.576 110.315 300.713 110.108 300.805C110.368 300.875 110.586 301.013 110.761 301.213C110.937 301.414 111.025 301.689 111.025 302.041C111.025 302.291 110.979 302.505 110.891 302.692C110.803 302.879 110.68 303.033 110.526 303.164C110.368 303.29 110.189 303.389 109.978 303.452C109.767 303.516 109.549 303.551 109.314 303.551H106.271V298.485L106.274 298.481ZM108.671 302.646C108.787 302.646 108.903 302.639 109.011 302.622C109.124 302.604 109.219 302.576 109.307 302.53C109.391 302.484 109.461 302.417 109.51 302.329C109.56 302.241 109.588 302.125 109.588 301.981C109.588 301.836 109.56 301.72 109.503 301.629C109.447 301.537 109.373 301.47 109.282 301.425C109.191 301.379 109.085 301.347 108.969 301.333C108.853 301.315 108.73 301.308 108.607 301.308H107.638V302.65H108.664L108.671 302.646ZM108.562 300.52C108.667 300.52 108.765 300.513 108.864 300.499C108.962 300.485 109.05 300.456 109.127 300.414C109.205 300.372 109.268 300.312 109.314 300.238C109.359 300.164 109.38 300.059 109.38 299.928C109.38 299.805 109.356 299.703 109.314 299.629C109.268 299.555 109.208 299.495 109.134 299.457C109.061 299.418 108.973 299.39 108.871 299.379C108.769 299.365 108.667 299.358 108.562 299.358H107.641V300.513H108.562V300.52Z" fill="#1D1D1B"></path> <path d="M114.37 303.674C113.973 303.674 113.614 303.611 113.295 303.488C112.975 303.364 112.701 303.185 112.473 302.952C112.244 302.72 112.068 302.442 111.945 302.115C111.822 301.787 111.759 301.421 111.759 301.016C111.759 300.611 111.822 300.245 111.945 299.914C112.068 299.583 112.244 299.305 112.473 299.073C112.701 298.84 112.975 298.661 113.295 298.534C113.614 298.407 113.973 298.344 114.37 298.344C114.767 298.344 115.129 298.407 115.452 298.534C115.775 298.661 116.05 298.84 116.278 299.073C116.506 299.305 116.682 299.587 116.805 299.914C116.928 300.245 116.991 300.611 116.991 301.016C116.991 301.421 116.928 301.787 116.805 302.115C116.682 302.442 116.506 302.72 116.278 302.952C116.05 303.185 115.775 303.361 115.452 303.488C115.129 303.611 114.771 303.674 114.37 303.674ZM114.37 302.636C114.605 302.636 114.802 302.59 114.96 302.498C115.118 302.407 115.248 302.284 115.343 302.132C115.438 301.977 115.505 301.805 115.544 301.611C115.582 301.417 115.603 301.22 115.603 301.02C115.603 300.819 115.582 300.618 115.544 300.421C115.505 300.224 115.438 300.051 115.343 299.9C115.248 299.749 115.122 299.629 114.96 299.534C114.802 299.439 114.602 299.393 114.37 299.393C114.138 299.393 113.941 299.442 113.783 299.534C113.625 299.629 113.502 299.752 113.407 299.9C113.312 300.051 113.246 300.224 113.207 300.421C113.168 300.618 113.147 300.815 113.147 301.02C113.147 301.224 113.168 301.421 113.207 301.611C113.246 301.805 113.312 301.977 113.407 302.132C113.502 302.287 113.629 302.407 113.783 302.498C113.941 302.59 114.135 302.636 114.37 302.636Z" fill="#1D1D1B"></path> <path d="M120.298 303.674C119.809 303.674 119.405 303.583 119.085 303.4C118.766 303.217 118.513 302.977 118.326 302.685C118.14 302.393 118.01 302.062 117.94 301.696C117.87 301.329 117.831 300.96 117.831 300.59C117.831 300.147 117.852 299.721 117.891 299.312C117.929 298.904 118.021 298.534 118.165 298.2C118.309 297.865 118.516 297.576 118.787 297.334C119.057 297.087 119.423 296.904 119.887 296.781C120.031 296.742 120.199 296.717 120.389 296.703C120.582 296.689 120.765 296.675 120.941 296.654C121.116 296.633 121.264 296.608 121.387 296.57C121.506 296.534 121.57 296.475 121.577 296.387H122.8C122.775 296.7 122.708 296.95 122.599 297.133C122.49 297.316 122.336 297.46 122.135 297.569C121.932 297.679 121.686 297.756 121.391 297.805C121.095 297.855 120.751 297.897 120.354 297.939C120.041 297.971 119.778 298.048 119.563 298.164C119.349 298.281 119.173 298.432 119.036 298.612C118.899 298.791 118.797 298.995 118.727 299.221C118.657 299.446 118.611 299.682 118.587 299.932H118.615C118.674 299.763 118.755 299.594 118.864 299.421C118.973 299.252 119.107 299.097 119.272 298.96C119.433 298.823 119.627 298.71 119.848 298.622C120.069 298.534 120.322 298.488 120.61 298.488C120.93 298.488 121.232 298.552 121.513 298.675C121.798 298.798 122.044 298.974 122.251 299.203C122.459 299.432 122.624 299.703 122.747 300.02C122.866 300.337 122.926 300.692 122.926 301.083C122.926 301.474 122.866 301.84 122.747 302.16C122.627 302.481 122.452 302.752 122.223 302.977C121.995 303.202 121.717 303.375 121.391 303.498C121.064 303.618 120.698 303.678 120.294 303.678L120.298 303.674ZM120.396 302.636C120.747 302.636 121.029 302.502 121.232 302.234C121.436 301.967 121.542 301.579 121.542 301.069C121.542 300.558 121.44 300.185 121.239 299.907C121.036 299.629 120.751 299.492 120.379 299.492C120.027 299.492 119.75 299.633 119.546 299.914C119.342 300.196 119.244 300.583 119.244 301.079C119.244 301.576 119.345 301.977 119.553 302.241C119.757 302.505 120.041 302.639 120.4 302.639L120.396 302.636Z" fill="#1D1D1B"></path> <path d="M126.282 303.674C125.885 303.674 125.526 303.611 125.206 303.488C124.887 303.364 124.613 303.185 124.384 302.952C124.156 302.72 123.98 302.442 123.857 302.115C123.734 301.787 123.671 301.421 123.671 301.016C123.671 300.611 123.734 300.245 123.857 299.914C123.98 299.583 124.156 299.305 124.384 299.073C124.613 298.84 124.887 298.661 125.206 298.534C125.526 298.407 125.885 298.344 126.282 298.344C126.679 298.344 127.041 298.407 127.364 298.534C127.687 298.661 127.961 298.84 128.19 299.073C128.418 299.305 128.594 299.587 128.717 299.914C128.84 300.245 128.903 300.611 128.903 301.016C128.903 301.421 128.84 301.787 128.717 302.115C128.594 302.442 128.418 302.72 128.19 302.952C127.961 303.185 127.687 303.361 127.364 303.488C127.041 303.611 126.682 303.674 126.282 303.674ZM126.282 302.636C126.517 302.636 126.714 302.59 126.872 302.498C127.03 302.407 127.16 302.284 127.255 302.132C127.35 301.977 127.417 301.805 127.455 301.611C127.494 301.417 127.515 301.22 127.515 301.02C127.515 300.819 127.494 300.618 127.455 300.421C127.417 300.224 127.35 300.051 127.255 299.9C127.16 299.749 127.034 299.629 126.872 299.534C126.714 299.439 126.514 299.393 126.282 299.393C126.05 299.393 125.853 299.442 125.695 299.534C125.537 299.629 125.414 299.752 125.319 299.9C125.224 300.051 125.157 300.224 125.119 300.421C125.08 300.618 125.059 300.815 125.059 301.02C125.059 301.224 125.08 301.421 125.119 301.611C125.157 301.805 125.224 301.977 125.319 302.132C125.414 302.287 125.54 302.407 125.695 302.498C125.853 302.59 126.046 302.636 126.282 302.636Z" fill="#1D1D1B"></path> <path d="M129.342 302.498H129.95C130.02 302.354 130.094 302.174 130.171 301.96C130.245 301.745 130.315 301.502 130.375 301.234C130.438 300.967 130.488 300.675 130.526 300.361C130.565 300.048 130.586 299.717 130.586 299.372V298.481H134.627V302.498H135.28V304.938H133.98V303.547H130.646V304.938H129.346V302.498H129.342ZM133.235 302.498V299.52H131.876V299.647C131.876 299.96 131.858 300.259 131.823 300.548C131.788 300.837 131.739 301.101 131.682 301.347C131.623 301.594 131.563 301.812 131.496 302.009C131.429 302.206 131.37 302.368 131.31 302.498H133.235Z" fill="#1D1D1B"></path> <path d="M135.906 298.481H137.294V300.224H138.633C138.886 300.224 139.128 300.259 139.353 300.326C139.578 300.393 139.775 300.499 139.94 300.639C140.105 300.78 140.238 300.953 140.337 301.16C140.435 301.365 140.484 301.608 140.484 301.882C140.484 302.157 140.439 302.407 140.344 302.618C140.249 302.826 140.115 303.002 139.943 303.139C139.771 303.276 139.567 303.378 139.335 303.449C139.103 303.519 138.85 303.551 138.576 303.551H135.906V298.485V298.481ZM141.078 298.481H142.456V303.547H141.078V298.481ZM138.243 302.586C138.496 302.586 138.699 302.53 138.854 302.421C139.009 302.308 139.082 302.129 139.082 301.882C139.082 301.636 139.002 301.453 138.836 301.34C138.675 301.227 138.471 301.168 138.228 301.168H137.29V302.59H138.239L138.243 302.586Z" fill="#1D1D1B"></path> <path d="M0.414612 308.163H1.74633V311.592L3.65432 308.163H5.22849V313.229H3.89677V309.8L1.98878 313.229H0.414612V308.163Z" fill="#1D1D1B"></path> <path d="M12.2771 313.384C11.736 313.384 11.2546 313.293 10.8295 313.106C10.4043 312.919 10.0459 312.662 9.75425 312.335C9.4626 312.007 9.23421 311.624 9.0796 311.184C8.92148 310.744 8.84418 310.268 8.84418 309.758C8.84418 309.247 8.92148 308.758 9.0796 308.307C9.23772 307.857 9.4626 307.466 9.75425 307.131C10.0459 306.797 10.4078 306.536 10.8295 306.346C11.2546 306.156 11.736 306.061 12.2771 306.061C12.6566 306.061 13.0185 306.118 13.3629 306.227C13.7072 306.339 14.0165 306.501 14.287 306.712C14.5576 306.924 14.7825 307.188 14.9582 307.501C15.1338 307.814 15.2463 308.174 15.292 308.578H13.8056C13.781 308.402 13.7213 308.24 13.6299 308.093C13.5386 307.945 13.4261 307.818 13.2891 307.705C13.1521 307.593 12.9975 307.508 12.8253 307.445C12.6531 307.381 12.4704 307.353 12.2842 307.353C11.9398 307.353 11.6447 307.42 11.4022 307.554C11.1598 307.688 10.9665 307.867 10.8154 308.093C10.6643 308.318 10.5554 308.575 10.4886 308.86C10.4219 309.149 10.3867 309.444 10.3867 309.751C10.3867 310.057 10.4219 310.332 10.4886 310.61C10.5554 310.888 10.6678 311.138 10.8154 311.36C10.9665 311.582 11.1598 311.761 11.4022 311.895C11.6447 312.029 11.9363 312.096 12.2842 312.096C12.755 312.096 13.1204 311.951 13.384 311.666C13.6475 311.377 13.8091 311.001 13.8689 310.529H15.3552C15.3166 310.972 15.2147 311.37 15.053 311.719C14.8914 312.067 14.6735 312.367 14.4065 312.617C14.1394 312.867 13.8267 313.053 13.4683 313.183C13.1099 313.314 12.7164 313.381 12.2842 313.381L12.2771 313.384Z" fill="#1D1D1B"></path> <path d="M16.2477 308.163H20.8929V313.229H19.505V309.212H17.6356V313.229H16.2477V308.163Z" fill="#1D1D1B"></path> <path d="M21.9506 308.163H23.2717V308.811H23.2928C23.4615 308.536 23.6758 308.335 23.9394 308.212C24.1994 308.089 24.4875 308.026 24.8002 308.026C25.1973 308.026 25.5416 308.1 25.8263 308.251C26.1144 308.402 26.3498 308.6 26.5396 308.849C26.7293 309.099 26.8699 309.388 26.9612 309.716C27.0526 310.046 27.0982 310.392 27.0982 310.751C27.0982 311.089 27.0526 311.416 26.9612 311.729C26.8699 312.043 26.7328 312.321 26.5466 312.564C26.3604 312.807 26.1284 312.997 25.8509 313.141C25.5733 313.285 25.25 313.356 24.8775 313.356C24.5648 313.356 24.2767 313.293 24.0131 313.166C23.7496 313.039 23.5318 312.849 23.3631 312.602H23.342V315.004H21.9541V308.163H21.9506ZM24.5016 312.317C24.73 312.317 24.9197 312.272 25.0743 312.18C25.2289 312.088 25.3519 311.969 25.4468 311.821C25.5416 311.673 25.6084 311.504 25.6471 311.31C25.6857 311.117 25.7068 310.916 25.7068 310.708C25.7068 310.501 25.6857 310.307 25.6435 310.11C25.6014 309.913 25.5311 309.74 25.4327 309.585C25.3343 309.43 25.2078 309.307 25.0567 309.212C24.9021 309.117 24.7159 309.071 24.4945 309.071C24.2732 309.071 24.0764 309.121 23.9218 309.212C23.7672 309.307 23.6442 309.43 23.5493 309.578C23.4545 309.73 23.3877 309.902 23.349 310.103C23.3104 310.304 23.2893 310.504 23.2893 310.705C23.2893 310.906 23.3104 311.117 23.3526 311.307C23.3947 311.501 23.465 311.67 23.5564 311.817C23.6512 311.965 23.7742 312.085 23.9288 312.176C24.0834 312.268 24.2732 312.314 24.5016 312.314V312.317Z" fill="#1D1D1B"></path> <path d="M29.4314 313.356C29.189 313.356 28.9641 313.328 28.7568 313.268C28.5494 313.208 28.3667 313.116 28.2086 312.993C28.0505 312.87 27.931 312.712 27.8432 312.522C27.7553 312.331 27.7097 312.106 27.7097 311.846C27.7097 311.557 27.7588 311.321 27.8607 311.134C27.9626 310.948 28.0927 310.8 28.2508 310.687C28.4089 310.575 28.5916 310.494 28.7989 310.437C29.0027 310.381 29.21 310.339 29.4209 310.304C29.6282 310.272 29.8355 310.244 30.0358 310.226C30.2361 310.205 30.4188 310.177 30.5734 310.138C30.7315 310.099 30.8545 310.043 30.9458 309.966C31.0372 309.892 31.0794 309.782 31.0723 309.638C31.0723 309.494 31.0477 309.378 30.9986 309.286C30.9494 309.195 30.8861 309.124 30.8018 309.075C30.721 309.026 30.6261 308.994 30.5172 308.976C30.4082 308.959 30.2923 308.952 30.1693 308.952C29.8952 308.952 29.6809 309.011 29.5228 309.128C29.3646 309.244 29.2733 309.441 29.2487 309.716H27.8607C27.8818 309.395 27.9626 309.128 28.1067 308.906C28.2508 308.688 28.4335 308.512 28.6549 308.381C28.8762 308.251 29.1257 308.156 29.3998 308.103C29.6739 308.047 29.955 308.019 30.2396 308.019C30.4926 308.019 30.7526 308.036 31.0126 308.071C31.2726 308.107 31.5116 308.177 31.7259 308.283C31.9402 308.388 32.1159 308.533 32.253 308.723C32.39 308.913 32.4568 309.156 32.4568 309.459V312.096C32.4568 312.324 32.4708 312.543 32.4954 312.754C32.52 312.962 32.5657 313.12 32.6325 313.226H31.2234C31.1988 313.148 31.1778 313.067 31.1602 312.986C31.1426 312.905 31.1321 312.821 31.125 312.736C30.9037 312.965 30.6437 313.124 30.3415 313.215C30.0428 313.307 29.7336 313.352 29.4209 313.352L29.4314 313.356ZM29.9514 312.433C30.2255 312.433 30.4363 312.388 30.5874 312.296C30.7385 312.205 30.8475 312.096 30.9212 311.969C30.9915 311.842 31.0372 311.712 31.0548 311.582C31.0723 311.451 31.0794 311.346 31.0794 311.268V310.751C31.0196 310.803 30.9494 310.842 30.865 310.874C30.7807 310.902 30.6858 310.927 30.5804 310.948C30.475 310.969 30.3696 310.983 30.2571 310.997C30.1447 311.011 30.0358 311.025 29.9233 311.046C29.8109 311.067 29.709 311.092 29.6106 311.124C29.5122 311.155 29.4279 311.201 29.3506 311.258C29.2768 311.314 29.2136 311.384 29.1714 311.469C29.1257 311.553 29.1011 311.662 29.1011 311.793C29.1011 311.923 29.1222 312.029 29.1714 312.11C29.2171 312.191 29.2803 312.257 29.3576 312.307C29.4349 312.356 29.5263 312.391 29.6317 312.409C29.7371 312.43 29.8425 312.437 29.955 312.437L29.9514 312.433Z" fill="#1D1D1B"></path> <path d="M33.5776 308.163H36.4835C36.7049 308.163 36.9122 308.188 37.109 308.237C37.3058 308.286 37.4744 308.36 37.622 308.462C37.7696 308.564 37.8855 308.695 37.9699 308.86C38.0542 309.022 38.0964 309.216 38.0964 309.437C38.0964 309.687 38.0331 309.899 37.9101 310.078C37.7871 310.258 37.6185 310.395 37.4112 310.487C37.6712 310.557 37.889 310.694 38.0682 310.895C38.2439 311.096 38.3318 311.37 38.3318 311.722C38.3318 311.972 38.2861 312.187 38.1983 312.374C38.1104 312.56 37.9874 312.715 37.8328 312.845C37.6747 312.972 37.4955 313.071 37.2847 313.134C37.0774 313.201 36.856 313.233 36.6206 313.233H33.5776V308.166V308.163ZM35.974 312.328C36.09 312.328 36.2059 312.321 36.3149 312.303C36.4273 312.286 36.5222 312.257 36.61 312.212C36.6944 312.166 36.7646 312.099 36.8138 312.011C36.8665 311.923 36.8911 311.807 36.8911 311.662C36.8911 311.518 36.863 311.402 36.8068 311.31C36.7506 311.219 36.6768 311.152 36.5854 311.106C36.4941 311.06 36.3887 311.029 36.2727 311.015C36.1568 310.997 36.0338 310.99 35.9108 310.99H34.941V312.331H35.967L35.974 312.328ZM35.8651 310.201C35.9705 310.201 36.0689 310.194 36.1673 310.18C36.2657 310.166 36.3535 310.138 36.4308 310.096C36.5081 310.054 36.5714 309.994 36.6171 309.92C36.6627 309.846 36.6838 309.74 36.6838 309.61C36.6838 309.487 36.6592 309.388 36.6171 309.311C36.5714 309.237 36.5116 309.177 36.4343 309.138C36.3606 309.099 36.2727 309.071 36.1708 309.061C36.0689 309.047 35.967 309.04 35.8616 309.04H34.941V310.194H35.8616L35.8651 310.201Z" fill="#1D1D1B"></path> <path d="M41.5574 313.356C41.1604 313.356 40.802 313.293 40.4822 313.166C40.1625 313.039 39.8919 312.856 39.6705 312.624C39.4492 312.388 39.277 312.106 39.1575 311.782C39.0381 311.455 38.9783 311.096 38.9783 310.705C38.9783 310.314 39.0416 309.973 39.1646 309.645C39.2875 309.318 39.4632 309.036 39.6916 308.797C39.92 308.557 40.1906 308.371 40.5068 308.233C40.8231 308.096 41.1744 308.029 41.5574 308.029C41.9615 308.029 42.3199 308.103 42.6291 308.254C42.9384 308.406 43.1949 308.607 43.4022 308.857C43.606 309.106 43.7641 309.399 43.866 309.733C43.9714 310.068 44.0241 310.413 44.0241 310.772V310.906C44.0241 310.948 44.0241 310.994 44.0136 311.039H40.3663C40.3874 311.49 40.4998 311.817 40.7071 312.018C40.9144 312.222 41.2166 312.321 41.6066 312.321C41.8877 312.321 42.1267 312.25 42.3305 312.11C42.5343 311.969 42.6573 311.821 42.7029 311.662H43.9257C43.729 312.272 43.4303 312.705 43.0262 312.965C42.6221 313.226 42.1337 313.356 41.5574 313.356ZM42.6221 310.152C42.5554 309.8 42.4429 309.532 42.2743 309.349C42.1091 309.166 41.8561 309.075 41.5153 309.075C41.2869 309.075 41.1007 309.114 40.9566 309.187C40.8125 309.261 40.6966 309.356 40.6087 309.466C40.5209 309.578 40.4576 309.694 40.4225 309.818C40.3874 309.941 40.3663 310.054 40.3592 310.152H42.6186H42.6221Z" fill="#1D1D1B"></path> <path d="M44.3755 312.18H44.9834C45.0536 312.036 45.1274 311.856 45.2047 311.641C45.2785 311.427 45.3488 311.184 45.4085 310.916C45.4718 310.649 45.521 310.356 45.5596 310.043C45.5983 309.73 45.6194 309.399 45.6194 309.054V308.163H49.6602V312.18H50.3138V314.62H49.0137V313.229H45.6791V314.62H44.379V312.18H44.3755ZM48.2688 312.18V309.202H46.9089V309.328C46.9089 309.642 46.8914 309.941 46.8562 310.23C46.8211 310.518 46.7719 310.782 46.7157 311.029C46.6559 311.275 46.5962 311.493 46.5294 311.691C46.4627 311.888 46.4029 312.05 46.3432 312.18H48.2688Z" fill="#1D1D1B"></path> <path d="M51.1536 313.307C51.0938 313.307 51.0025 313.296 50.8795 313.278C50.7565 313.257 50.6581 313.236 50.5844 313.212V312.162C50.623 312.176 50.6687 312.184 50.7214 312.187C50.7741 312.187 50.8268 312.191 50.8795 312.191C50.9955 312.191 51.1044 312.152 51.1957 312.078C51.2906 312.004 51.3679 311.856 51.4312 311.641C51.4944 311.427 51.5436 311.12 51.5787 310.719C51.6139 310.321 51.6315 309.797 51.6315 309.152V308.163H55.7391V313.229H54.3511V309.212H52.9245C52.8999 309.93 52.8578 310.55 52.798 311.064C52.7383 311.581 52.6469 312.004 52.5204 312.338C52.3939 312.673 52.2218 312.916 52.0004 313.074C51.7825 313.229 51.5014 313.31 51.1536 313.31V313.307Z" fill="#1D1D1B"></path> <path d="M56.7967 308.163H58.1284V311.592L60.0364 308.163H61.6106V313.229H60.2788V309.8L58.3709 313.229H56.7967V308.163Z" fill="#1D1D1B"></path> <path d="M62.7033 308.163H65.6092C65.8306 308.163 66.0379 308.188 66.2347 308.237C66.4315 308.286 66.6001 308.36 66.7477 308.462C66.8953 308.564 67.0112 308.695 67.0956 308.86C67.1799 309.022 67.2221 309.216 67.2221 309.437C67.2221 309.687 67.1588 309.899 67.0358 310.078C66.9128 310.258 66.7442 310.395 66.5369 310.487C66.7969 310.557 67.0147 310.694 67.1904 310.895C67.3661 311.096 67.454 311.37 67.454 311.722C67.454 311.972 67.4083 312.187 67.3204 312.374C67.2326 312.56 67.1096 312.715 66.955 312.845C66.7969 312.972 66.6177 313.071 66.4069 313.134C66.1996 313.201 65.9782 313.233 65.7428 313.233H62.6998V308.166L62.7033 308.163ZM65.0997 312.328C65.2157 312.328 65.3317 312.321 65.4406 312.303C65.553 312.286 65.6479 312.257 65.7322 312.212C65.8166 312.166 65.8868 312.099 65.936 312.011C65.9887 311.923 66.0133 311.807 66.0133 311.662C66.0133 311.518 65.9852 311.402 65.929 311.31C65.8728 311.219 65.799 311.152 65.7076 311.106C65.6163 311.06 65.5109 311.029 65.3949 311.015C65.2789 310.997 65.156 310.99 65.033 310.99H64.0632V312.331H65.0892L65.0997 312.328ZM64.9908 310.201C65.0962 310.201 65.1946 310.194 65.293 310.18C65.3914 310.166 65.4792 310.138 65.5565 310.096C65.6338 310.054 65.6971 309.994 65.7428 309.92C65.7884 309.846 65.8095 309.74 65.8095 309.61C65.8095 309.487 65.7849 309.388 65.7428 309.311C65.6971 309.237 65.6373 309.177 65.5636 309.138C65.4898 309.099 65.4019 309.071 65.3 309.061C65.1981 309.047 65.0962 309.04 64.9908 309.04H64.0702V310.194H64.9908V310.201Z" fill="#1D1D1B"></path> <path d="M70.7991 313.356C70.402 313.356 70.0436 313.293 69.7239 313.169C69.4041 313.046 69.13 312.867 68.9017 312.634C68.6733 312.402 68.4976 312.124 68.3746 311.796C68.2516 311.469 68.1884 311.103 68.1884 310.698C68.1884 310.293 68.2516 309.927 68.3746 309.596C68.4976 309.265 68.6733 308.983 68.9017 308.754C69.13 308.522 69.4041 308.343 69.7239 308.216C70.0436 308.089 70.402 308.026 70.7991 308.026C71.1962 308.026 71.5581 308.089 71.8813 308.216C72.2046 308.343 72.4787 308.522 72.7071 308.754C72.9355 308.987 73.1112 309.268 73.2341 309.596C73.3571 309.927 73.4204 310.293 73.4204 310.698C73.4204 311.103 73.3571 311.469 73.2341 311.796C73.1112 312.124 72.9355 312.402 72.7071 312.634C72.4787 312.867 72.2046 313.043 71.8813 313.169C71.5581 313.293 71.1997 313.356 70.7991 313.356ZM70.7991 312.317C71.0345 312.317 71.2313 312.272 71.3894 312.18C71.5475 312.088 71.6775 311.965 71.7724 311.814C71.8673 311.659 71.934 311.486 71.9727 311.296C72.0113 311.103 72.0324 310.906 72.0324 310.705C72.0324 310.504 72.0113 310.304 71.9727 310.106C71.934 309.909 71.8673 309.737 71.7724 309.585C71.6775 309.434 71.551 309.314 71.3894 309.219C71.2278 309.124 71.031 309.078 70.7991 309.078C70.5672 309.078 70.3704 309.128 70.2123 309.219C70.0542 309.314 69.9312 309.437 69.8363 309.585C69.7414 309.737 69.6747 309.909 69.636 310.106C69.5974 310.304 69.5763 310.501 69.5763 310.705C69.5763 310.909 69.5974 311.106 69.636 311.296C69.6747 311.49 69.7414 311.662 69.8363 311.814C69.9312 311.969 70.0577 312.088 70.2123 312.18C70.3704 312.272 70.5637 312.317 70.7991 312.317Z" fill="#1D1D1B"></path> <path d="M76.7163 313.356C76.3298 313.356 75.9819 313.293 75.6692 313.166C75.3565 313.039 75.0894 312.859 74.8681 312.631C74.6467 312.402 74.4745 312.131 74.348 311.814C74.2251 311.497 74.1618 311.148 74.1618 310.772C74.1618 310.395 74.218 310.015 74.334 309.68C74.4464 309.342 74.6151 309.054 74.8364 308.807C75.0578 308.561 75.3284 308.371 75.6481 308.233C75.9679 308.096 76.3333 308.029 76.7444 308.029C77.0431 308.029 77.3312 308.068 77.6088 308.145C77.8864 308.223 78.1324 308.343 78.3537 308.504C78.5716 308.666 78.7508 308.867 78.8878 309.106C79.0249 309.349 79.1022 309.631 79.1233 309.948H77.7634C77.6721 309.367 77.3312 309.075 76.7374 309.075C76.516 309.075 76.3298 309.124 76.1787 309.226C76.0276 309.328 75.9046 309.459 75.8133 309.617C75.7184 309.779 75.6516 309.955 75.613 310.152C75.5743 310.349 75.5533 310.539 75.5533 310.719C75.5533 310.898 75.5743 311.089 75.613 311.279C75.6516 311.469 75.7149 311.641 75.8027 311.793C75.8906 311.948 76.0101 312.071 76.1611 312.169C76.3122 312.268 76.495 312.317 76.7093 312.317C77.0431 312.317 77.2961 312.226 77.4788 312.039C77.658 311.853 77.7705 311.603 77.8161 311.289H79.1549C79.0635 311.962 78.8035 312.476 78.3713 312.828C77.9426 313.18 77.391 313.356 76.7198 313.356H76.7163Z" fill="#1D1D1B"></path> <path d="M81.1682 309.209H79.5062V308.159H84.2217V309.209H82.5597V313.226H81.1718V309.209H81.1682Z" fill="#1D1D1B"></path> <path d="M84.8437 308.163H86.1754V311.592L88.0834 308.163H89.6576V313.229H88.3258V309.8L86.4179 313.229H84.8437V308.163Z" fill="#1D1D1B"></path> </g> <defs> <clipPath id="clip0_1_87"> <rect width="197" height="315" fill="white"></rect> </clipPath> </defs> </svg> 